<svg width="96" height="37" viewBox="0 0 96 37" fill="none" xmlns="http://www.w3.org/2000/svg">
<g clip-path="url(#clip0_658_2518)">
<path fill-rule="evenodd" clip-rule="evenodd" d="M42.0864 6.27661C42.0864 6.27661 42.0864 6.27661 44.0846 6.27661C44.8127 6.27661 45.1795 6.6689 45.1795 7.55452C45.1795 7.55452 45.1795 7.55452 45.1795 10.6928C45.1795 10.6928 45.1795 10.6928 49.0937 10.6928C49.0937 10.6928 49.0937 10.6928 49.0937 7.55452C49.0937 6.6689 49.455 6.27661 50.2761 6.27661C50.2761 6.27661 50.2761 6.27661 52.1867 6.27661C52.1867 6.27661 52.1867 6.27661 52.1867 8.3391C52.1867 8.3391 52.1867 8.3391 51.371 8.3391L51.2779 8.44015C51.2779 8.44015 51.2779 8.44015 51.2779 17.2726C51.2779 17.2726 51.2779 17.2726 49.0937 17.2726C49.0937 17.2726 49.0937 17.2726 49.0937 12.8564C49.0937 12.8564 49.0937 12.8564 45.1795 12.8564C45.1795 12.8564 45.1795 12.8564 45.1795 17.2726C45.1795 17.2726 45.1795 17.2726 42.9952 17.2726C42.9952 17.2726 42.9952 17.2726 42.9952 8.44015C42.9952 8.44015 42.9952 8.3391 42.9021 8.3391C42.9021 8.3391 42.9021 8.3391 42.0864 8.3391C42.0864 8.3391 42.0864 8.3391 42.0864 6.27661Z" fill="#ED1C24"/>
<path fill-rule="evenodd" clip-rule="evenodd" d="M57.9184 6.08051L57.9677 6.08645V8.35103L57.9184 8.33914C56.2816 8.33914 55.0061 9.8132 55.0061 11.6795C55.0061 13.641 56.2816 15.2101 57.9184 15.2101L57.9677 15.1983V17.4628L57.9184 17.4688C55.0061 17.4688 52.6411 14.9189 52.6411 11.6795C52.6411 8.53529 55.0061 6.08051 57.9184 6.08051Z" fill="#ED1C24"/>
<path fill-rule="evenodd" clip-rule="evenodd" d="M57.9673 6.08643L58.98 6.19342C61.3833 6.70458 63.1953 8.92755 63.1953 11.6795C63.1953 14.5088 61.3833 16.8209 58.98 17.3499L57.9673 17.4628V15.1982L59.0786 14.9367C60.1516 14.4018 60.9235 13.1476 60.9235 11.6795C60.9235 10.2768 60.1516 9.09992 59.0786 8.60065L57.9673 8.35101V6.08643Z" fill="#ED1C24"/>
<path fill-rule="evenodd" clip-rule="evenodd" d="M63.6499 6.27661C63.6499 6.27661 63.6499 6.27661 66.6991 6.27661H68.1553V8.3391H68.0185C67.8378 8.3391 67.471 8.3391 66.7429 8.3391C66.7429 8.3391 66.7429 8.3391 66.7429 10.5977C66.7429 10.5977 66.7429 10.5977 67.3615 10.5977H68.1553V12.5592H67.69C67.4601 12.5592 67.1535 12.5592 66.7429 12.5592C66.7429 12.5592 66.7429 12.5592 66.7429 15.014C66.7429 15.115 66.7429 15.115 66.836 15.115C66.836 15.115 66.836 15.115 67.4875 15.115H68.1553V17.2726H67.9637C67.6353 17.2726 66.9729 17.2726 65.6535 17.2726C64.9254 17.2726 64.5641 16.8803 64.5641 15.9947V8.3391C64.5641 8.3391 64.5641 8.3391 63.6499 8.3391C63.6499 8.3391 63.6499 8.3391 63.6499 6.27661Z" fill="#ED1C24"/>
<path fill-rule="evenodd" clip-rule="evenodd" d="M68.1553 6.27661H68.1991C70.2027 6.27661 71.3852 7.45348 71.3852 9.22473C71.3852 10.3005 70.9308 10.99 70.4764 11.4834C71.2976 11.8756 71.8395 12.8564 71.8395 13.9322C71.8395 15.9947 70.3834 17.2726 68.2921 17.2726C68.2921 17.2726 68.2921 17.2726 68.2538 17.2726H68.1553V15.115H68.3797C69.1078 15.115 69.5677 14.6217 69.5677 13.8371C69.5677 13.0525 69.1078 12.5592 68.3797 12.5592C68.3797 12.5592 68.3797 12.5592 68.1772 12.5592H68.1553V10.5977H68.1991C68.8396 10.5977 69.2009 10.1044 69.2009 9.42087C69.2009 8.73139 68.8396 8.3391 68.1991 8.3391C68.1991 8.3391 68.1991 8.3391 68.1772 8.3391H68.1553V6.27661Z" fill="#ED1C24"/>
<path fill-rule="evenodd" clip-rule="evenodd" d="M76.0277 6.27661C76.0277 6.27661 76.0277 6.27661 76.9474 6.27661H77.1171V9.42087C77.0295 9.61701 76.9364 9.90826 76.9364 10.2054C76.9364 10.2054 76.9364 10.2054 76.2083 12.4641C76.2083 12.4641 76.2083 12.4641 76.9802 12.4641H77.1171V14.5206H76.6244C76.3452 14.5206 76.0277 14.5206 75.6664 14.5206C75.6664 14.5206 75.6664 14.5206 75.0259 16.2919C74.8452 16.9754 74.4839 17.2726 73.7558 17.2726C73.7558 17.2726 73.7558 17.2726 72.3872 17.2726C72.3872 17.2726 72.3872 17.2726 72.3872 15.115C72.3872 15.115 72.3872 15.115 72.8416 15.115C73.0277 15.115 73.0277 15.115 73.1153 15.014C73.1153 15.014 73.1153 15.014 76.0277 6.27661Z" fill="#ED1C24"/>
<path fill-rule="evenodd" clip-rule="evenodd" d="M77.1172 6.27661H78.2121C78.2121 6.27661 78.2121 6.27661 81.1244 15.014C81.212 15.115 81.212 15.115 81.3927 15.115C81.3927 15.115 81.3927 15.115 81.7595 15.115C81.7595 15.115 81.7595 15.115 81.7595 17.2726C81.7595 17.2726 81.7595 17.2726 80.4839 17.2726C79.7558 17.2726 79.3945 16.9754 79.2084 16.1908C79.2084 16.1908 79.2084 16.1908 78.5734 14.5206C78.5734 14.5206 78.5734 14.5206 77.3471 14.5206H77.1172V12.4641H78.0259C78.0259 12.4641 78.0259 12.4641 77.3033 10.2054C77.3033 9.90826 77.2103 9.61701 77.1172 9.42087V6.27661Z" fill="#ED1C24"/>
<path fill-rule="evenodd" clip-rule="evenodd" d="M42.0864 20.4109C42.0864 20.4109 42.0864 20.4109 50.0024 20.4109C50.7305 20.4109 51.1849 20.8032 51.1849 21.6889C51.1849 21.6889 51.1849 21.6889 51.1849 29.1483C51.1849 29.2434 51.1849 29.2434 51.2779 29.2434C51.2779 29.2434 51.2779 29.2434 52.006 29.2434C52.006 29.2434 52.006 29.2434 52.006 31.4069C52.006 31.4069 52.006 31.4069 50.0955 31.4069C49.2743 31.4069 48.913 31.0146 48.913 30.129C48.913 30.129 48.913 30.129 48.913 22.5745C48.913 22.5745 48.913 22.4734 48.8199 22.4734C48.8199 22.4734 48.8199 22.4734 45.1795 22.4734C45.1795 22.4734 45.1795 22.4734 45.1795 31.4069C45.1795 31.4069 45.1795 31.4069 42.9952 31.4069C42.9952 31.4069 42.9952 31.4069 42.9952 22.4734C42.9952 22.4734 42.9952 22.4734 42.0864 22.4734C42.0864 22.4734 42.0864 22.4734 42.0864 20.4109Z" fill="#ED1C24"/>
<path fill-rule="evenodd" clip-rule="evenodd" d="M57.7376 20.2148L57.7814 20.2207V22.4853L57.7376 22.4734C56.0953 22.4734 54.8252 23.9475 54.8252 25.8138C54.8252 27.7753 56.0953 29.3444 57.7376 29.3444L57.7814 29.3325V31.5971L57.7376 31.6031C54.8252 31.6031 52.5479 29.0472 52.5479 25.8138C52.5479 22.6696 54.8252 20.2148 57.7376 20.2148Z" fill="#ED1C24"/>
<path fill-rule="evenodd" clip-rule="evenodd" d="M57.7812 20.2207L58.8269 20.3277C61.2739 20.8389 63.0148 23.0618 63.0148 25.8138C63.0148 28.643 61.2739 30.9552 58.8269 31.4842L57.7812 31.5971V29.3325L58.9363 29.071C60.0258 28.536 60.7429 27.2819 60.7429 25.8138C60.7429 24.4111 60.0258 23.2342 58.9363 22.7349L57.7812 22.4853V20.2207Z" fill="#ED1C24"/>
<path fill-rule="evenodd" clip-rule="evenodd" d="M63.4692 20.4109C63.4692 20.4109 63.4692 20.4109 65.4729 20.4109C66.201 20.4109 66.5623 20.8032 66.5623 21.6889C66.5623 21.6889 66.5623 21.6889 66.5623 29.1483C66.5623 29.2434 66.5623 29.2434 66.6553 29.2434C66.6553 29.2434 66.6553 29.2434 69.294 29.2434C69.294 29.2434 69.294 29.2434 69.294 20.4109C69.294 20.4109 69.294 20.4109 71.4783 20.4109C71.4783 20.4109 71.4783 20.4109 71.4783 29.2434C71.4783 29.2434 71.4783 29.2434 74.1169 29.2434C74.21 29.2434 74.21 29.2434 74.21 29.1483C74.21 29.1483 74.21 29.1483 74.21 21.6889C74.21 20.8032 74.5713 20.4109 75.2994 20.4109C75.2994 20.4109 75.2994 20.4109 77.303 20.4109C77.303 20.4109 77.303 20.4109 77.303 22.4734C77.303 22.4734 77.303 22.4734 76.4819 22.4734C76.3888 22.4734 76.3888 22.5745 76.3888 22.5745C76.3888 22.5745 76.3888 22.5745 76.3888 30.129C76.3888 31.0146 76.0275 31.4069 75.2994 31.4069C75.2994 31.4069 75.2994 31.4069 65.5605 31.4069C64.7448 31.4069 64.378 31.0146 64.378 30.129C64.378 30.129 64.378 30.129 64.378 22.5745C64.378 22.5745 64.378 22.4734 64.2904 22.4734C64.2904 22.4734 64.2904 22.4734 63.4692 22.4734C63.4692 22.4734 63.4692 22.4734 63.4692 20.4109Z" fill="#ED1C24"/>
<path fill-rule="evenodd" clip-rule="evenodd" d="M79.0277 20.4109C79.0277 20.4109 79.0277 20.4109 85.8543 20.4109C86.6754 20.4109 86.9491 20.8032 86.9491 21.5878C86.9491 21.5878 86.9491 21.5878 86.9491 23.4542H84.9455C84.9455 23.4542 84.9455 23.4542 84.9455 22.5745C84.9455 22.4734 84.9455 22.4734 84.8525 22.4734C84.8525 22.4734 84.8525 22.4734 83.5824 22.4734C83.5824 22.4734 83.5824 22.4734 83.5824 31.4069C83.5824 31.4069 83.5824 31.4069 81.3926 31.4069C81.3926 31.4069 81.3926 31.4069 81.3926 22.4734C81.3926 22.4734 81.3926 22.4734 80.1226 22.4734C80.0295 22.4734 80.0295 22.4734 80.0295 22.5745C80.0295 22.5745 80.0295 22.5745 80.0295 23.4542C80.0295 23.4542 80.0295 23.4542 78.0259 23.4542C78.0259 23.4542 78.0259 23.4542 78.0259 21.5878C78.0259 20.8032 78.2996 20.4109 79.0277 20.4109Z" fill="#ED1C24"/>
<path fill-rule="evenodd" clip-rule="evenodd" d="M89.7684 20.4109C89.7684 20.4109 89.7684 20.4109 90.6881 20.4109H90.8578V23.5552C90.7647 23.7514 90.6772 24.0426 90.6772 24.3398C90.6772 24.3398 90.6772 24.3398 89.9491 26.5984C89.9491 26.5984 89.9491 26.5984 90.7155 26.5984H90.8578V28.655H90.3651C90.0859 28.655 89.7684 28.655 89.4016 28.655C89.4016 28.655 89.4016 28.655 88.7666 30.3252C88.5859 31.1097 88.2192 31.4069 87.4911 31.4069C87.4911 31.4069 87.4911 31.4069 86.1279 31.4069C86.1279 31.4069 86.1279 31.4069 86.1279 29.2434C86.1279 29.2434 86.1279 29.2434 86.5823 29.2434C86.7684 29.2434 86.7684 29.2434 86.856 29.1483C86.856 29.1483 86.856 29.1483 89.7684 20.4109Z" fill="#ED1C24"/>
<path fill-rule="evenodd" clip-rule="evenodd" d="M90.8579 20.4109H91.9473C91.9473 20.4109 91.9473 20.4109 94.8652 29.1483C94.9528 29.2434 94.9528 29.2434 95.1389 29.2434H95.5002C95.5002 29.2434 95.5002 29.2434 95.5002 31.4069C95.5002 31.4069 95.5002 31.4069 94.2247 31.4069C93.4966 31.4069 93.1353 31.1097 92.9491 30.3252C92.9491 30.3252 92.9491 30.3252 92.3141 28.655C92.3141 28.655 92.3141 28.655 91.0878 28.655H90.8579V26.5984H91.7667C91.7667 26.5984 91.7667 26.5984 91.0386 24.3398C91.0386 24.0426 90.951 23.7514 90.8579 23.5552V20.4109Z" fill="#ED1C24"/>
<path fill-rule="evenodd" clip-rule="evenodd" d="M28.0608 10.9544C28.1648 10.9187 28.3017 10.9901 28.4386 11.1862C28.4386 11.1862 28.4386 11.1862 34.6246 17.76C34.9859 18.1523 34.9859 18.7467 34.6246 19.0379C34.6246 19.0379 34.6246 19.0379 28.4386 25.7128C28.3017 25.9089 28.1648 25.9565 28.0608 25.897C27.9568 25.8376 27.8911 25.6652 27.8911 25.4156V11.3823C27.8911 11.1386 27.9568 10.9901 28.0608 10.9544Z" fill="#ED1C24"/>
<path fill-rule="evenodd" clip-rule="evenodd" d="M17.4789 0H17.9168L18.3383 0.190202C18.3383 0.190202 18.3383 0.190201 24.7051 7.0612C24.9788 7.45349 24.8857 7.75068 24.4313 7.75068C24.4313 7.75068 24.4313 7.75068 21.7927 7.75068C21.3383 7.75068 20.977 8.14297 20.977 8.6363C20.977 8.6363 20.977 8.6363 20.977 13.7361C20.977 14.2294 20.6102 14.6217 20.0628 14.6217C20.0628 14.6217 20.0628 14.6217 15.426 14.6217C14.9716 14.6217 14.6048 14.2294 14.6048 13.7361C14.6048 13.7361 14.6048 13.7361 14.6048 8.6363C14.6048 8.14297 14.2435 7.75068 13.7836 7.75068H10.9643C10.5099 7.75068 10.4169 7.45349 10.6906 7.0612C10.6906 7.0612 10.6906 7.0612 17.0628 0.190202L17.4789 0Z" fill="#ED1C24"/>
<path fill-rule="evenodd" clip-rule="evenodd" d="M7.50449 10.8058C7.61946 10.8652 7.69062 11.0376 7.69062 11.2872V25.6117C7.69062 25.8614 7.61946 26.01 7.50449 26.0575C7.39501 26.1051 7.23625 26.0575 7.05012 25.9089C7.05012 25.9089 7.05012 25.9089 0.770983 19.0379C0.409672 18.7467 0.409672 18.1523 0.770983 17.76C0.770983 17.76 0.770983 17.76 7.05012 10.9901C7.23625 10.7939 7.39501 10.7464 7.50449 10.8058Z" fill="#ED1C24"/>
<path fill-rule="evenodd" clip-rule="evenodd" d="M15.4261 22.0811C15.4261 22.0811 15.4261 22.0811 20.0629 22.0811C20.6103 22.0811 20.9771 22.4734 20.9771 22.9667C20.9771 22.9667 20.9771 22.9667 20.9771 28.3637C20.9771 28.9521 21.3384 29.3444 21.7928 29.3444H24.2508C24.7052 29.3444 24.8858 29.6357 24.5245 29.9328C24.5245 29.9328 24.5245 29.9328 18.3384 36.7028C18.1523 36.8989 17.9279 37 17.6979 37C17.4735 37 17.2436 36.8989 17.0629 36.7028C17.0629 36.7028 17.0629 36.7028 10.8768 29.9328C10.51 29.6357 10.6907 29.3444 11.1451 29.3444C11.1451 29.3444 11.1451 29.3444 13.7837 29.3444C14.2436 29.3444 14.6049 28.9521 14.6049 28.3637C14.6049 28.3637 14.6049 28.3637 14.6049 22.9667C14.6049 22.4734 14.9717 22.0811 15.4261 22.0811Z" fill="#ED1C24"/>
</g>
<defs>
<clipPath id="clip0_658_2518">
<rect width="95" height="37" fill="white" transform="translate(0.5)"/>
</clipPath>
</defs>
</svg>
