<svg width="18" height="17" viewBox="0 0 18 17" fill="none" xmlns="http://www.w3.org/2000/svg">
<path d="M12.7001 0C13.4568 0.00121191 14.1724 0.175561 14.81 0.485545L14.7812 0.472928L15.4935 0.814538L12.3316 3.97568L12.6382 4.87673L13.5392 5.1833L16.7011 2.02142L17.0427 2.73372C17.341 3.34242 17.5154 4.05836 17.5154 4.81506C17.5154 7.47628 15.3581 9.63365 12.6969 9.63365C12.3175 9.63365 11.9483 9.58977 11.5941 9.50687L11.6267 9.51331L4.14155 17L0.5 13.3585L8.00084 5.88821C7.92444 5.56681 7.88064 5.19782 7.88064 4.81858C7.88064 2.15735 10.038 1.65924e-05 12.6992 1.65924e-05H12.7001H12.7001L12.7001 0ZM13.5161 1.20912C13.2709 1.15118 12.9893 1.11798 12.6999 1.11798C10.6562 1.11798 8.99947 2.77473 8.99947 4.81843C8.99947 5.20219 9.05791 5.5723 9.16631 5.92037L9.15928 5.89414L9.25699 6.21563L2.08435 13.3599L4.14155 15.4172L11.3023 8.25646L11.623 8.35417C11.9448 8.45561 12.315 8.51404 12.6988 8.51404C14.742 8.51404 16.3985 6.85761 16.3985 4.81433C16.3985 4.52496 16.3653 4.24335 16.3024 3.97309L16.3073 3.99806L13.8383 6.46701L11.7558 5.75912L11.0486 3.67729L13.5161 1.20912Z" fill="#DAA640"/>
</svg>
