<svg width="19" height="17" viewBox="0 0 19 17" fill="none" xmlns="http://www.w3.org/2000/svg">
<path d="M4.45467 10.3058L11.4126 3.7344L14.5521 6.69957L7.59418 13.271L4.45467 10.3058ZM11.4126 5.33718L6.15172 10.3058L7.59423 11.6681L12.8551 6.69952L11.4126 5.33718ZM14.844 0C16.8631 1.66015e-05 18.5 1.5459 18.5 3.45292C18.5 5.35994 16.8632 6.9058 14.844 6.9058C12.8248 6.9058 11.188 5.35989 11.188 3.45291C11.1903 1.54678 12.8257 0.0021582 14.8438 0H14.844ZM14.844 5.77244C16.2004 5.77244 17.3 4.73395 17.3 3.45287C17.3 2.1718 16.2004 1.13335 14.844 1.13335C13.4876 1.13335 12.388 2.17185 12.388 3.45292C12.3894 4.73343 13.4881 5.77116 14.8439 5.77246H14.844V5.77244ZM4.156 10.0942C6.17515 10.0942 7.81201 11.6401 7.81201 13.5471C7.81201 15.4541 6.17517 17 4.156 17C2.13687 17 0.5 15.4541 0.5 13.5471C0.502285 11.641 2.13775 10.0964 4.15578 10.0942H4.156ZM4.156 15.8667C5.51242 15.8667 6.61202 14.8282 6.61202 13.5471C6.61202 12.266 5.5124 11.2276 4.15599 11.2276C2.79957 11.2276 1.69997 12.2661 1.69997 13.5472C1.70138 14.8277 2.80013 15.8654 4.15586 15.8667H4.15597L4.156 15.8667ZM7.2128 9.30092L4.66802 6.90581H3.38798C1.79331 6.89849 0.503164 5.67736 0.5 4.17094V1.35927L1.86002 2.64373C2.05742 2.84129 2.33656 2.96431 2.64611 2.96431C2.88778 2.96431 3.11091 2.88933 3.29088 2.76268L3.288 2.76461C3.5156 2.59006 3.65984 2.32579 3.65984 2.02974C3.65984 1.7642 3.54383 1.52427 3.35703 1.35268L3.33997 1.33657L1.97999 1.65924e-05H4.91598C6.51049 0.00300487 7.80294 1.22018 7.81197 2.7245V3.93418L10.348 6.33759L7.2128 9.30092ZM1.70001 3.90166V4.17064C1.70182 5.05273 2.45687 5.76771 3.38993 5.77241H5.164L7.21121 7.6991L8.65121 6.3391L6.612 4.40489V2.72755C6.60611 1.84667 5.84932 1.1346 4.91613 1.13334H4.64239C4.77767 1.39504 4.85677 1.70277 4.85677 2.028C4.85677 2.68492 4.53395 3.27065 4.02997 3.65141L4.02557 3.65461L4.01199 3.66444C3.63599 3.93359 3.16036 4.09559 2.64465 4.09559C2.30214 4.09559 1.97732 4.02413 1.68594 3.89615L1.70001 3.90166ZM11.7872 7.6991L14.332 10.0942H15.612C17.2067 10.1015 18.4968 11.3226 18.5 12.829V15.6407L17.14 14.3563C16.9426 14.1587 16.6634 14.0357 16.3539 14.0357C16.1122 14.0357 15.8891 14.1107 15.7091 14.2373L15.712 14.2354C15.4844 14.4099 15.3402 14.6742 15.3402 14.9702C15.3402 15.2358 15.4562 15.4757 15.643 15.6473L15.6432 15.6475L15.6496 15.6528L17.0576 16.9826H14.084C12.4895 16.9796 11.1971 15.7624 11.188 14.2581V13.0636L8.65203 10.6602L11.7872 7.6991ZM17.3 13.0983V12.8293C17.2982 11.9472 16.5431 11.2322 15.6101 11.2275H13.836L11.7888 9.3009L10.3488 10.6609L12.3888 12.5944V14.2566C12.3947 15.1375 13.1515 15.8495 14.0847 15.8508H14.3512C14.2207 15.5932 14.1445 15.2907 14.1445 14.9715C14.1445 14.3144 14.4674 13.7286 14.9716 13.3479L14.976 13.3447L14.9888 13.3349C15.3648 13.0657 15.8404 12.9037 16.3561 12.9037C16.6986 12.9037 17.0234 12.9752 17.3148 13.1031L17.3008 13.0976L17.3 13.0983Z" fill="#DAA640"/>
</svg>
