<svg width="18" height="17" viewBox="0 0 18 17" fill="none" xmlns="http://www.w3.org/2000/svg">
<path d="M14.7604 12.9695C15.8694 12.9695 16.7685 13.8685 16.7685 14.9776C16.7685 16.0866 15.8694 16.9857 14.7604 16.9857C13.6513 16.9857 12.7523 16.0866 12.7523 14.9776C12.7536 13.8691 13.6518 12.9708 14.7603 12.9695H14.7604H14.7604ZM14.7604 15.8533C15.244 15.8533 15.6361 15.4612 15.6361 14.9776C15.6361 14.494 15.244 14.1019 14.7604 14.1019C14.2767 14.1019 13.8847 14.494 13.8847 14.9776C13.8851 15.4611 14.2769 15.8529 14.7603 15.8533H14.7604L14.7604 15.8533ZM4.35383 9.51729H4.35808C6.39829 9.51729 8.06382 11.1215 8.16206 13.1374L8.16239 13.1462L8.1911 13.7396H8.09598C7.82045 15.5937 6.23962 17 4.33033 17C2.37048 17 0.756734 15.5182 0.54832 13.6139L0.546827 13.5969V13.5735C0.542346 13.5089 0.539791 13.4336 0.539791 13.3576C0.539791 13.2816 0.54233 13.2062 0.547358 13.1316L0.54681 13.1417C0.647366 11.1191 2.31172 9.51732 4.35019 9.51732H4.35406H4.35386L4.35383 9.51729ZM6.94999 12.6607C6.64082 11.4966 5.59646 10.6528 4.35504 10.6528C2.92128 10.6528 1.75043 11.7783 1.67789 13.1941L1.67762 13.2005V13.2103C1.67485 13.2516 1.67326 13.2999 1.67326 13.3485C1.67326 13.3971 1.67482 13.4453 1.67794 13.4931L1.6776 13.4866C1.83391 14.8274 2.9631 15.8582 4.33302 15.8582C5.70294 15.8582 6.83216 14.8274 6.98726 13.4991L6.98845 13.4866C6.99121 13.4453 6.9928 13.3971 6.9928 13.3485C6.9928 13.2999 6.99122 13.2516 6.9881 13.2038L6.98844 13.2103L6.94999 12.6607ZM4.31229 12.2969C4.77703 12.2993 5.1613 12.6409 5.23034 13.0866L5.23101 13.0918L5.23705 13.1326V13.2602L5.23101 13.3009C5.16297 13.7526 4.77759 14.0948 4.31228 14.0948C3.84696 14.0948 3.46156 13.7526 3.39416 13.3061L3.39353 13.3009L3.38749 13.2602V13.1326L3.39353 13.0918C3.46326 12.6408 3.84753 12.2993 4.31201 12.2969H4.31226L4.31229 12.2969ZM15.1076 14.1019H7.52822V12.9695H14.4116L16.3487 9.11943C16.2818 8.29622 15.5979 7.65328 14.7635 7.65187H2.50807C2.03486 7.65364 1.64986 8.02887 1.63244 8.49805L1.63237 8.49963V13.5357H0.5V8.47776C0.529868 7.39268 1.41579 6.52421 2.5049 6.52252H14.7604C16.2655 6.52252 17.4857 7.74263 17.4857 9.24778V9.38218L15.1076 14.1019ZM9.69864 7.61717H1.9419V0H8.00538L9.69864 7.61717ZM3.07421 6.48477H8.28316L7.09643 1.13239H3.07427L3.07421 6.48477ZM8.99276 1.13239H1.78337V6.63729e-05H8.99286L8.99276 1.13239ZM14.0356 9.77621H11.1518V8.64384H14.0356V9.77621ZM13.16 7.05095H12.0276V4.89188C12.0289 3.78337 12.9272 2.88507 14.0356 2.88379H14.0357V4.01616C13.5522 4.01658 13.1604 4.40838 13.16 4.8918V4.89186V7.05095Z" fill="#DAA640"/>
</svg>
