<svg width="18" height="17" viewBox="0 0 18 17" fill="none" xmlns="http://www.w3.org/2000/svg">
<path d="M6.34468 0H11.656V1.96446C12.2287 2.21254 12.7226 2.50894 13.1729 2.86108L13.156 2.84846L14.8384 1.85112L17.5 6.61112L15.8154 7.60468C15.8512 7.86748 15.8716 8.17109 15.8716 8.47961C15.8716 8.78814 15.8512 9.09175 15.8116 9.3891L15.8154 9.35456L17.5 10.3481L14.8384 15.1081L13.1553 14.1108C12.7218 14.4503 12.228 14.7467 11.7003 14.9773L11.6553 14.9948V17H6.34471V15.062C5.77205 14.8139 5.27817 14.5175 4.82787 14.1653L4.84472 14.178L3.16156 15.1753L0.5 10.4153L2.18536 9.42177C2.14899 9.15443 2.12827 8.84556 2.12827 8.53173C2.12827 8.21789 2.14902 7.909 2.18921 7.60652L2.18536 7.64168L0.500744 6.64662L3.16231 1.88662L4.84544 2.88396C5.27871 2.54392 5.77229 2.24705 6.29977 2.01593L6.34471 1.99843L6.34468 0ZM10.5526 1.13334H7.44811V2.78876L7.08029 2.92174C6.37547 3.17907 5.76722 3.5446 5.24036 4.00538L5.24853 3.9984L4.95428 4.25606L3.56831 3.43777L2.00726 6.23331L3.405 7.05915L3.33146 7.45659C3.26732 7.78099 3.23059 8.15386 3.23059 8.53553C3.23059 8.9172 3.26732 9.29007 3.33727 9.65059L3.33146 9.61443L3.405 10.0119L2.0073 10.8377L3.56832 13.6332L4.95428 12.8067L5.24851 13.0643C5.766 13.5177 6.37272 13.8831 7.03548 14.1279L7.07586 14.141L7.44369 14.2739V15.8666H10.5481V14.2112L10.9159 14.0782C11.6224 13.8214 12.2322 13.4558 12.7603 12.9946L12.7521 13.0016L13.0463 12.7439L14.4323 13.5622L15.9933 10.7667L14.5912 9.94537L14.6647 9.54719C14.7285 9.22771 14.7649 8.86049 14.7649 8.48453C14.7649 8.10857 14.7285 7.74134 14.659 7.3864L14.6647 7.42184L14.5912 7.02366L15.9926 6.19706L14.4315 3.40153L13.0463 4.22584L12.7521 3.96669C12.2346 3.51331 11.6279 3.14787 10.9651 2.90303L10.9247 2.89003L10.5569 2.75705L10.5526 1.13334ZM9.00035 5.04711C10.8571 5.04711 12.3622 6.59301 12.3622 8.5C12.3622 10.407 10.8571 11.9529 9.00035 11.9529C7.14363 11.9529 5.63845 10.407 5.63845 8.5C5.64055 6.59389 7.14446 5.04927 9.00014 5.04711H9.00035ZM9.00035 10.8196C10.2476 10.8196 11.2588 9.78106 11.2588 8.49998C11.2588 7.21891 10.2476 6.18045 9.00035 6.18045C7.75305 6.18045 6.74191 7.21894 6.74191 8.50002C6.7432 9.78053 7.75357 10.8183 9.00023 10.8196H9.00035Z" fill="#DAA640"/>
</svg>
