<svg width="36" height="31" viewBox="0 0 36 31" fill="none" xmlns="http://www.w3.org/2000/svg">
<path d="M31.5794 7.90471C31.3143 8.31555 31.1099 8.75067 30.9669 9.20646C31.5404 10.1338 31.9686 11.0731 32.2604 12.0158C32.5669 13.006 32.7222 13.9997 32.7368 14.9872C32.747 15.6709 32.6894 16.3499 32.5679 17.0211C32.4455 17.6979 32.2587 18.3622 32.014 19.0115C32.0769 20.1654 31.9649 21.327 31.526 22.4909C30.4341 25.3866 27.3354 27.7976 24.2729 28.9866C22.4905 29.6785 20.5735 30.0344 18.6352 30.0566C18.2385 30.1521 17.8365 30.2333 17.4293 30.2997C15.0417 30.6882 12.6424 30.5169 10.3663 29.739C8.5599 29.1217 6.79892 28.1146 5.13326 26.6668C3.81038 25.5171 2.78088 24.3162 2.01316 23.0897C1.19699 21.7859 0.676419 20.4535 0.413369 19.1231C0.112086 17.5981 0.148101 16.0371 0.493594 14.5221C0.473724 13.7044 0.539792 12.9006 0.684596 12.1174C0.83437 11.306 1.06834 10.5163 1.3778 9.75586C1.88449 8.50977 2.59786 7.33558 3.4813 6.27237C6.40594 2.75288 11.0714 0.579121 15.9986 0.647263C17.7119 0.671077 19.4716 0.963074 21.2247 1.5682C21.4087 1.63096 21.5948 1.69884 21.7803 1.77051C23.2361 1.57955 24.6051 1.22903 25.8812 0.557801C26.4975 0.232647 27.2416 1.37123 26.6423 1.6875C25.7685 2.14708 24.8423 2.48759 23.8664 2.72728C26.1875 3.97919 28.3981 5.80927 29.9711 7.79182C30.0749 7.59908 30.1884 7.4108 30.3056 7.2243C30.1777 7.05649 30.1372 6.8809 30.2445 6.72399L31.4762 4.86878C31.5865 4.70275 31.7115 4.65958 31.8381 4.61574C31.9092 4.59103 31.9812 4.56611 32.0348 4.48732C32.055 4.45772 32.0664 4.41744 32.0681 4.37182C32.0696 4.32931 32.0624 4.28324 32.0458 4.23761C31.937 4.00905 31.8826 3.76735 31.8938 3.52765C31.9047 3.29464 31.9767 3.06451 32.1198 2.85062L32.1315 2.83348C32.3657 2.49453 32.7323 2.27398 33.1381 2.19075C33.5418 2.10819 33.9844 2.16204 34.3736 2.37125C34.3763 2.37258 34.383 2.37637 34.3942 2.3826C34.7874 2.60048 35.0494 2.93832 35.1558 3.30798C35.2623 3.67898 35.2116 4.08227 34.9789 4.42987C34.8351 4.64486 34.6386 4.81334 34.4126 4.93063C34.1789 5.05214 33.9129 5.11891 33.6406 5.12581H33.6359C33.6347 5.12581 33.6334 5.12603 33.6322 5.12603C33.5919 5.12759 33.552 5.1405 33.5162 5.16053C33.4767 5.18278 33.4427 5.21394 33.4196 5.24911C33.3669 5.329 33.3756 5.39978 33.3843 5.46944C33.3995 5.59096 33.4144 5.71092 33.3036 5.87494L32.0468 7.73955L32.0463 7.73933C31.9571 7.87531 31.7865 7.92182 31.5818 7.90446L31.5794 7.90471ZM32.3518 4.0727C32.357 4.08049 32.3615 4.08873 32.3655 4.09741C32.4064 4.1911 32.4246 4.28925 32.4211 4.38162C32.4174 4.48199 32.3885 4.57635 32.3364 4.65291C32.2202 4.82361 32.0915 4.86812 31.9643 4.91219C31.8955 4.93601 31.828 4.95937 31.7805 5.03081L30.5528 6.88027C30.4484 7.03361 30.9233 7.32671 31.047 7.39326C31.2475 7.5012 31.6824 7.69082 31.7835 7.51099L32.9965 5.71139C33.0452 5.63929 33.037 5.57274 33.0286 5.5053C33.0134 5.38334 32.998 5.2596 33.111 5.08801C33.162 5.01078 33.237 4.94223 33.3259 4.89216C33.4118 4.84386 33.5109 4.81315 33.6145 4.80893C33.618 4.8087 33.6215 4.8087 33.6249 4.8087C33.6262 4.8087 33.6272 4.8087 33.6284 4.80848C33.8413 4.80314 34.0492 4.75084 34.2322 4.65581C34.4078 4.56455 34.5603 4.4337 34.6721 4.26722C34.8544 3.99504 34.8937 3.67856 34.8102 3.38702C34.7263 3.09414 34.5181 2.82662 34.2059 2.65347L34.1895 2.64457C33.8818 2.47921 33.5326 2.43648 33.2144 2.50147C32.8984 2.56601 32.6135 2.73737 32.4317 3.00088L32.4228 3.01424C32.3112 3.18071 32.2551 3.35964 32.2467 3.54036C32.2385 3.71863 32.2758 3.89911 32.3518 4.0727ZM33.9518 3.03936C34.1394 3.14329 34.2643 3.30442 34.315 3.48069C34.3659 3.65784 34.3415 3.8508 34.2303 4.01705L34.2246 4.02529C34.1123 4.18776 33.9369 4.29324 33.7425 4.33308C33.5497 4.37247 33.3383 4.34688 33.1528 4.24695L33.1431 4.24161C32.9556 4.13768 32.8307 3.97655 32.78 3.80028C32.7291 3.62312 32.7534 3.43017 32.8647 3.26391L32.8704 3.25568C32.9827 3.09321 33.158 2.98772 33.3525 2.94789C33.5452 2.90849 33.7566 2.93409 33.9421 3.03401L33.9518 3.03936ZM34.0745 3.53566C34.0393 3.41325 33.9523 3.30108 33.8214 3.22853L33.8145 3.22497C33.6858 3.15576 33.5398 3.13795 33.4069 3.1651C33.2755 3.19203 33.1573 3.26325 33.0815 3.37252L33.0778 3.37808C33.0018 3.49159 32.9854 3.62357 33.0204 3.74508C33.0557 3.86749 33.1426 3.97966 33.2735 4.05221L33.2805 4.05577C33.4091 4.12498 33.5552 4.14279 33.6881 4.11564C33.8194 4.08871 33.9377 4.01749 34.0134 3.90822L34.0172 3.90265C34.0932 3.78915 34.1096 3.65717 34.0745 3.53566ZM30.5575 7.4689C30.0839 8.2343 29.8643 8.93554 29.6706 9.79176C29.5417 10.5865 29.5598 11.3959 29.6589 12.2169C29.7769 13.1951 30.0096 14.1921 30.2448 15.2001C30.3849 15.8001 30.526 16.4044 30.641 17.0053C30.7111 17.3716 30.7719 17.7395 30.8181 18.1085C31.0101 17.5474 31.143 16.9701 31.2078 16.3861C31.2299 16.1865 31.2351 16.2199 31.1954 16.0405C31.1248 15.7233 31.0511 15.4066 30.9771 15.0901C30.7371 14.0633 30.4979 13.0397 30.3929 11.9933C30.2876 10.9435 30.3027 10.0199 30.6559 9.01124C30.8012 8.59662 30.9927 8.19291 31.2225 7.82389C30.987 7.74221 30.7498 7.61557 30.5575 7.4689ZM29.8107 8.1428C28.195 6.04807 25.891 4.15235 23.4363 2.88022C22.7836 2.54193 22.109 2.23948 21.414 1.97888C19.5999 1.29855 17.7671 0.98963 15.9934 0.965131C11.1965 0.898584 6.64964 3.01177 3.79151 6.43094C2.91646 7.47762 2.2106 8.63534 1.71083 9.86434C1.4088 10.6068 1.18054 11.3773 1.03448 12.1687C0.971638 12.509 0.923948 12.8531 0.891907 13.2002C1.23989 12.2258 1.70261 11.2887 2.25872 10.3955C2.40377 10.1625 2.39235 10.1576 2.49965 9.90812C2.97232 8.80868 3.61861 7.77248 4.40846 6.83103C7.48488 3.16283 12.4977 1.13601 17.6226 1.74895C18.4867 1.85221 19.3479 2.02915 20.197 2.28041C20.8833 2.48361 21.5619 2.72976 22.1008 2.98012C24.9912 4.24581 27.7909 6.50412 29.5263 8.94195C29.6271 8.6041 29.7222 8.35665 29.8101 8.14254L29.8107 8.1428ZM30.6882 10.9286C31.2836 12.2154 31.6146 13.5737 31.6353 14.968C31.6403 15.2969 31.6278 15.6258 31.5985 15.9537C31.4989 17.9198 30.5422 19.982 29.3591 21.6262C27.7844 23.815 25.3523 25.8664 22.9117 27.2542C21.8558 27.8547 20.7689 28.3465 19.6644 28.7166C20.105 28.6806 20.5677 28.622 21.0322 28.541C21.752 28.4153 22.5205 28.2753 23.1502 27.9261C23.8946 27.513 24.6243 27.0484 25.3351 26.5364C27.2315 25.17 29.1028 23.4224 30.3136 21.5293C30.5888 21.0989 30.8591 20.6278 31.1002 20.1597C31.6417 19.1095 32.0105 18.1158 32.2179 16.9698C32.3364 16.3155 32.3925 15.6547 32.3826 14.9906C32.3684 14.0312 32.2172 13.0646 31.9186 12.1003C31.6653 11.2815 31.3051 10.4638 30.8322 9.65331C30.7341 10.069 30.6814 10.5035 30.6884 10.9281L30.6882 10.9286ZM30.5951 21.7332C29.9085 24.0002 27.9744 25.8421 25.8215 27.1042C25.1519 27.4968 24.4557 27.8295 23.7394 28.1035C22.953 28.4436 22.0226 28.6929 21.0989 28.8542C20.038 29.0396 19.0908 29.0915 18.0217 29.0663C16.0302 29.0194 14.0581 28.5929 12.2394 27.8699C10.4174 27.1454 8.6787 26.0987 7.12215 24.7456C5.32041 23.1795 4.00523 21.5508 3.11085 19.9157C2.35279 18.5298 1.89727 17.1395 1.70429 15.779C1.55204 16.8769 1.63947 17.9554 1.87244 19.0408C2.89647 21.3986 4.59564 23.4637 6.613 25.2175C8.23116 26.6274 10.1164 27.7907 12.1871 28.5747C13.877 29.2146 15.5789 29.5469 17.4249 29.6784C19.7388 29.8433 21.8726 29.5727 24.1331 28.6954C27.0997 27.5438 30.1321 25.197 31.1903 22.3905C31.5177 21.5221 31.6563 20.653 31.6742 19.7862C31.5949 19.9538 31.511 20.1236 31.4233 20.2936C31.3587 20.4189 30.5957 21.7334 30.5957 21.7334L30.5951 21.7332ZM30.5312 18.824C30.4912 18.2365 30.4028 17.6471 30.2903 17.0589C30.1748 16.454 30.0355 15.8573 29.8971 15.2649C29.6599 14.2487 29.4252 13.2439 29.3055 12.2506C29.1875 11.2712 29.1815 10.305 29.3944 9.35471C27.6386 6.76925 24.6519 4.37187 21.5926 3.11712C20.1175 3.28092 18.6307 3.31052 17.1501 3.41757C12.7722 3.73405 9.09519 5.23518 6.04312 8.05747C5.24164 8.7986 4.5258 9.6069 3.91628 10.4662C3.31968 11.3073 2.82612 12.1955 2.4553 13.1151C2.25088 13.6218 2.08621 14.1301 1.95804 14.6558C2.02237 16.3226 2.48585 18.052 3.42895 19.776C4.30572 21.3786 5.59731 22.9773 7.36948 24.5176C8.89475 25.8434 10.5979 26.8687 12.3825 27.5782C14.2776 28.3316 16.3292 28.7531 18.4047 28.7531C19.8748 28.3798 21.3241 27.7796 22.721 26.9855C25.1196 25.6217 27.5124 23.6058 29.0603 21.4548C29.6542 20.6291 30.1564 19.7476 30.5312 18.824ZM13.5745 29.4429C10.6029 29.1303 8.02894 27.827 5.88963 25.9675C3.71853 24.0802 2.09738 21.6937 1.51024 19.0804C1.25391 17.9391 1.20125 16.8401 1.35525 15.7405C1.47621 14.8772 1.78097 13.8498 2.121 13.0068C2.50152 12.0634 3.00623 11.1545 3.61524 10.2956C4.23668 9.41943 4.96788 8.59398 5.78805 7.8357C8.90021 4.95848 12.6584 3.42262 17.122 3.09991C18.3945 3.008 19.6716 2.97328 20.9423 2.86178C19.4736 2.34033 19.1793 2.29004 17.5902 2.39975C12.602 2.74404 8.73349 4.12591 5.2376 7.35785C4.74954 7.8092 4.29076 8.28483 3.86608 8.78131C3.50469 9.20372 3.17409 9.63057 2.86958 10.0855C1.93743 11.477 1.21492 13.0081 0.84282 14.5992C0.503787 16.0492 0.460072 17.5339 0.76334 19.0686C1.01941 20.3648 1.52712 21.6632 2.32288 22.9344C3.07471 24.1356 4.0836 25.3122 5.38041 26.4393C7.00901 27.855 8.72929 28.8391 10.4923 29.4416C12.6967 30.1952 15.0172 30.364 17.3308 29.9931C16.3472 29.9156 15.3396 29.777 14.3752 29.5655C14.0389 29.4919 13.917 29.479 13.5745 29.4429ZM23.4282 2.50077C24.4982 2.26619 25.5106 1.91387 26.4616 1.41358C26.6464 1.3161 26.2681 0.722304 26.0595 0.832266C24.906 1.43893 23.6736 1.79747 22.3634 2.00828C22.7238 2.16207 23.0795 2.32651 23.4282 2.50077ZM17.643 2.07279C12.6464 1.44761 7.72952 3.42349 4.71688 6.99329C4.27675 7.51474 3.88182 8.06647 3.53732 8.64288C3.98489 8.1152 4.46826 7.61221 4.9831 7.13619C8.51352 3.87217 12.5906 2.37857 17.643 2.07279ZM2.49141 20.9764C3.28177 22.7961 4.57877 24.3851 6.13736 25.7398C7.80842 27.1924 9.7793 28.3241 12.0413 28.8589C9.92885 28.0515 8.0119 26.8777 6.36467 25.4458C4.84856 24.128 3.50953 22.638 2.49141 20.9764ZM25.5568 26.7856C25.3538 26.9318 25.1492 27.0742 24.943 27.2129C25.1735 27.0949 25.4013 26.9701 25.6263 26.8383C27.2417 25.8911 28.8363 24.5181 29.6995 22.9551C28.5415 24.3777 27.0862 25.6835 25.5568 26.7856ZM31.2766 14.822C31.2468 13.8684 31.066 12.9254 30.7496 12.0149C30.8464 12.9592 31.0608 13.895 31.2766 14.822Z" fill="white"/>
</svg>
