<svg width="30" height="31" viewBox="0 0 30 31" fill="none" xmlns="http://www.w3.org/2000/svg">
<g clip-path="url(#clip0_687_766)">
<path d="M14.6854 8.57292C14.9052 8.51213 15.1375 8.60661 15.3023 8.78215L15.3145 8.79606L15.1065 9.02438C14.96 9.19332 14.96 9.46334 15.1065 9.63228L15.3997 9.9565L16.774 8.44308L16.4808 8.11886C16.3281 7.94991 16.0837 7.94991 15.9312 8.11886L15.7254 8.34482L15.6873 8.30264C15.5345 8.1337 15.4612 7.89054 15.5162 7.66766C15.62 7.23528 15.5224 6.75556 15.2169 6.41765C14.6794 5.82317 13.7386 5.93792 13.3539 6.75554C13.1828 7.11369 13.1828 7.5529 13.3539 7.91078C13.6347 8.4916 14.1905 8.71473 14.6854 8.57292ZM13.9645 6.85006C14.2026 6.58663 14.5876 6.58663 14.8317 6.85006C15.0699 7.11349 15.0699 7.54585 14.8317 7.80927C14.5935 8.0727 14.2026 8.0727 13.9645 7.80927C13.7263 7.54584 13.7263 7.11348 13.9645 6.85006Z" fill="white"/>
<path d="M20.2957 2.81801C20.5422 2.76226 20.7953 2.8489 20.9754 3.01635L20.9879 3.02802L20.7618 3.23825C20.5952 3.39317 20.5952 3.64078 20.7618 3.78965L21.0815 4.08696L22.5804 2.69916L22.2607 2.40186C22.0941 2.24694 21.8276 2.24694 21.6613 2.40186L21.4377 2.60993L21.3952 2.57017C21.2286 2.42152 21.1487 2.19854 21.2086 1.9879C21.3218 1.59141 21.2154 1.15173 20.8822 0.848179C20.296 0.296779 19.2699 0.402005 18.8435 1.15175C18.6637 1.47995 18.6637 1.88271 18.8501 2.2111C19.1565 2.74975 19.7628 2.94808 20.2958 2.81804L20.2957 2.81801ZM19.5162 1.23817C19.776 0.996605 20.1958 0.996605 20.4556 1.23817C20.7154 1.48599 20.7154 1.8762 20.4556 2.11775C20.1958 2.35931 19.776 2.35931 19.5162 2.11775C19.2564 1.87619 19.2564 1.47972 19.5162 1.23817Z" fill="white"/>
<path d="M26.9342 0.507302C26.808 0.483112 26.6818 0.519396 26.5917 0.610635L26.1289 1.07915C27.4151 1.66923 28.8454 3.11724 29.4283 4.41304L29.885 3.95069C29.9752 3.85945 30.0173 3.72556 29.9932 3.59782C29.7829 2.46622 28.0523 0.720128 26.9342 0.507302Z" fill="white"/>
<path d="M15.5291 16.7503L10.6122 21.8939C10.1278 21.1717 9.47428 20.4836 8.78253 19.9702L13.6974 14.8341L15.5291 16.7503Z" stroke="white" stroke-width="1.33333"/>
<path d="M6.53907 20.7242C6.4099 20.6993 6.28074 20.7428 6.18847 20.8356L5.16113 21.907C5.97304 22.1176 6.7114 22.5449 7.32051 23.1581C7.92967 23.7713 8.3356 24.5021 8.55081 25.2825L9.5597 24.2295C9.65196 24.1366 9.69509 24.0066 9.67041 23.8765C9.4552 22.7246 7.68329 20.9408 6.53901 20.7242L6.53907 20.7242Z" fill="white"/>
<path d="M5.63733 28.1723L5.63731 28.1723C4.74834 29.035 3.31637 29.035 2.42735 28.1724L5.63733 28.1723ZM5.63733 28.1723C6.53731 27.2989 6.53769 25.875 5.63715 25.0018M5.63733 28.1723L2.42733 25.0016C3.31628 24.139 4.74831 24.139 5.63715 25.0018M5.63715 25.0018L5.17281 25.4801L5.63683 25.0014C5.63693 25.0015 5.63704 25.0016 5.63715 25.0018ZM1.64484 24.298L1.64488 24.298C2.96044 23.0213 5.10425 23.0213 6.41961 24.298L6.41965 24.298C7.72382 25.5636 7.72401 27.61 6.41965 28.8757L6.4196 28.8758C5.10431 30.1524 2.9605 30.1524 1.64487 28.8757L1.64486 28.8757C0.340674 27.6102 0.340537 25.5636 1.64484 24.298ZM2.42726 25.0017C1.52707 25.8751 1.52704 27.299 2.42728 28.1723L2.42726 25.0017Z" stroke="white" stroke-width="1.33333"/>
<path d="M24.9595 2.51084C25.0006 2.46927 25.0456 2.46721 25.069 2.47479L25.0689 2.47481C25.5576 2.63321 26.2167 3.08849 26.8229 3.70129C27.4286 4.3136 27.8804 4.98097 28.0382 5.47826L28.0382 5.47852C28.0486 5.51119 28.0424 5.56321 28.0006 5.60545L17.9397 15.7757L17.9397 15.7757C17.8922 15.8237 17.8186 15.8237 17.7711 15.7757L14.8986 12.872L14.8986 12.872C14.8472 12.82 14.8471 12.7331 14.8986 12.681L24.9595 2.51084Z" stroke="white" stroke-width="1.33333"/>
</g>
<defs>
<clipPath id="clip0_687_766">
<rect width="30" height="30" fill="white" transform="translate(0 0.5)"/>
</clipPath>
</defs>
</svg>
