<svg width="37" height="27" viewBox="0 0 37 27" fill="none" xmlns="http://www.w3.org/2000/svg">
<path d="M24.1992 13.69C24.1992 12.2561 25.0521 11.09 26.1004 11.09C26.1565 11.09 26.2197 11.1032 26.2804 11.1109L26.2154 10.6138H24.2539L24.1864 11.0703C24.1269 11.4754 23.8654 11.7663 23.5613 11.7663H18.8524L18.3908 13.0207C18.2823 13.3143 18.0619 13.4996 17.8201 13.4996H13.5441C13.5002 13.5476 13.4641 13.6049 13.4182 13.6494C12.9156 14.1376 12.3412 14.3736 11.7736 14.3736C11.0157 14.3736 10.2702 13.9539 9.71883 13.1553L8.99463 19.5663H9.6952C10.2639 16.5809 12.2576 14.3663 14.6305 14.3663C16.7674 14.3663 18.5992 16.1619 19.3581 18.6996H24.6397C25.2451 18.1533 25.9708 17.8329 26.7508 17.8329C26.8861 17.8329 27.0193 17.843 27.1512 17.862L26.9957 16.6661C26.5318 16.4661 26.116 16.3349 25.776 16.2513C24.8633 16.0304 24.1992 14.9528 24.1992 13.69Z" fill="white"/>
<path d="M27.4325 19.7054L27.3943 19.7139L27.3878 19.6884C27.1836 19.6187 26.9731 19.5669 26.7499 19.5669C26.1182 19.5669 25.5507 19.8876 25.1041 20.4076V20.4336H25.0785C24.5428 21.0661 24.1982 21.9935 24.1982 23.0335C24.1982 24.9487 25.3402 26.5001 26.7499 26.5001C28.1596 26.5001 29.3015 24.9487 29.3015 23.0335C29.3015 21.4476 28.5041 20.1129 27.4325 19.7054ZM26.7499 25.6335C25.6973 25.6335 24.8361 24.4636 24.8361 23.0336C24.8361 21.6035 25.6973 20.4336 26.7499 20.4336C27.8025 20.4336 28.6636 21.6035 28.6636 23.0336C28.6636 24.4636 27.8025 25.6335 26.7499 25.6335Z" fill="white"/>
<path d="M14.6307 16.0996C12.5193 16.0996 10.8032 18.4311 10.8032 21.2995C10.8032 24.168 12.5193 26.4995 14.6307 26.4995C16.7421 26.4995 18.4582 24.168 18.4582 21.2995C18.4582 18.4311 16.7421 16.0996 14.6307 16.0996ZM14.6307 24.7662C13.221 24.7662 12.079 23.2147 12.079 21.2995C12.079 19.3844 13.221 17.8329 14.6307 17.8329C16.0404 17.8329 17.1823 19.3844 17.1823 21.2995C17.1823 23.2147 16.0404 24.7662 14.6307 24.7662Z" fill="white"/>
<path d="M27.3891 23.0332C27.3891 23.5118 27.1035 23.8998 26.7512 23.8998C26.3989 23.8998 26.1133 23.5118 26.1133 23.0332C26.1133 22.5546 26.3989 22.1665 26.7512 22.1665C27.1035 22.1665 27.3891 22.5546 27.3891 23.0332Z" fill="white"/>
<path d="M32.7824 19.8478C33.0936 19.4411 33.4707 19.1359 33.8873 18.9401C31.1799 14.6014 27.9385 13.2511 26.2127 12.8367C26.1796 12.8298 26.1386 12.824 26.1005 12.824C25.7616 12.824 25.4751 13.2209 25.4751 13.6906C25.4751 14.112 25.6969 14.4718 26.0014 14.5453C27.523 14.9206 30.3603 16.1111 32.7824 19.8478Z" fill="white"/>
<path d="M34.8626 20.4331C33.9064 20.4331 33.1289 21.4893 33.1289 22.7885C33.1289 23.9744 33.7816 24.9787 34.6476 25.1262L36.7496 25.4833L35.8201 20.4332L34.8626 20.4331Z" fill="white"/>
<path d="M5.2361 4.80029L0.678711 13.9586L2.65792 13.8631L6.05737 6.43576L5.50176 5.40855C5.39724 5.21626 5.31213 5.01077 5.2361 4.80029Z" fill="white"/>
<path d="M15.9061 21.3002C15.9061 22.2574 15.3349 23.0335 14.6303 23.0335C13.9258 23.0335 13.3545 22.2574 13.3545 21.3002C13.3545 20.343 13.9258 19.5669 14.6303 19.5669C15.3349 19.5669 15.9061 20.343 15.9061 21.3002Z" fill="white"/>
<path d="M0.25 16.0996L0.987572 18.6996C1.37374 19.7396 2.19931 20.4329 3.11805 20.4329C4.30107 20.4329 5.30037 19.2827 5.49459 17.6976L5.53389 17.3768L4.62572 17.7881C4.39647 17.8937 4.14301 17.8109 3.973 17.5792L2.88374 16.0996L0.25 16.0996Z" fill="white"/>
<path d="M24.1919 2.2334H19.6778L19.1558 10.0333H23.0382L24.1919 2.2334Z" fill="white"/>
<path d="M14.5934 11.0594C14.5646 11.304 14.5165 11.5388 14.4575 11.7663H17.4261L17.8339 10.6586L17.8755 10.033H14.6054C14.6299 10.3715 14.6341 10.7139 14.5934 11.0594L14.5934 11.0594Z" fill="white"/>
<path d="M10.5188 11.7579C11.0308 12.7046 11.9791 12.9162 12.6766 12.2399C13.0297 11.8964 13.2635 11.3806 13.3333 10.7863C13.4045 10.1843 13.2986 9.58499 13.0357 9.09828L9.04617 1.72358C8.53413 0.776451 7.58779 0.565234 6.88893 1.2415C6.53523 1.58508 6.30143 2.1012 6.23166 2.69511C6.16132 3.29674 6.26726 3.89644 6.53011 4.38276L10.5188 11.7579Z" fill="white"/>
<path d="M19.6758 0.5H26.7503V2.23331H19.6758V0.5Z" fill="white"/>
</svg>
