<svg width="31" height="43" viewBox="0 0 31 43" fill="none" xmlns="http://www.w3.org/2000/svg">
<path d="M30.5 36.2814V41.6564C30.5 42.418 29.9801 43.0002 29.3 43.0002H25.7C25.0199 43.0002 24.5 42.418 24.5 41.6564V37.6252H18.4199C18.14 39.148 16.94 40.3127 15.5 40.3127C14.06 40.3127 12.8201 39.148 12.5801 37.6252H6.5V41.6564C6.5 42.418 5.98009 43.0002 5.3 43.0002H1.7C1.01991 43.0002 0.5 42.418 0.5 41.6564V32.2502C0.5 31.4886 1.01991 30.9064 1.7 30.9064H5.3C5.98009 30.9064 6.5 31.4886 6.5 32.2502V36.2814H12.5801C12.8201 34.9824 13.7402 33.9074 14.9 33.6836V16.125H13.7C13.0199 16.125 12.5 15.5428 12.5 14.7813V9.40626C11.8199 9.40626 11.3 8.82407 11.3 8.06251V6.71876H6.5V10.75C6.5 11.5116 5.98009 12.0938 5.3 12.0938H1.7C1.01991 12.0938 0.5 11.5116 0.5 10.75V1.34375C0.5 0.58219 1.01991 0 1.7 0H5.3C5.98009 0 6.5 0.58219 6.5 1.34375V5.375H11.3V4.03125C11.3 3.26969 11.8199 2.6875 12.5 2.6875H18.5C19.1801 2.6875 19.7 3.26969 19.7 4.03125V5.375H24.5V1.34375C24.5 0.58219 25.0199 0 25.7 0H29.3C29.9801 0 30.5 0.58219 30.5 1.34375V10.75C30.5 11.5116 29.9801 12.0938 29.3 12.0938H25.7C25.0199 12.0938 24.5 11.5116 24.5 10.75V6.71876H19.7V8.06251C19.7 8.82407 19.1801 9.40626 18.5 9.40626V14.7813C18.5 15.5428 17.9801 16.125 17.3 16.125H16.1V33.6836C17.2601 33.9524 18.2201 34.9827 18.4199 36.2814H24.5V32.2502C24.5 31.4886 25.0199 30.9064 25.7 30.9064H29.3C29.9801 30.9064 30.5 31.4886 30.5 32.2502V36.2814ZM15.5 34.9377C14.5001 34.9377 13.7 35.8336 13.7 36.9533C13.7 38.073 14.5001 38.9689 15.5 38.9689C16.4999 38.9689 17.3 38.073 17.3 36.9533C17.3 35.8336 16.4999 34.9377 15.5 34.9377ZM17.3 9.40641H13.7V14.7814H17.3V9.40641ZM12.5 8.06266H18.5V5.77951V5.823V4.03144H12.5V6.31459V6.27109V8.06266ZM1.7 5.37516V10.7502H5.3V1.3439H1.7V5.37516ZM25.7 5.37516V10.7502H29.3V1.3439H25.7V5.37516ZM1.7 36.2814V41.6564H5.3V32.2502H1.7V36.2814ZM25.7 36.2814V41.6564H29.3V32.2502H25.7V36.2814Z" fill="white"/>
</svg>
