<svg width="50" height="40" viewBox="0 0 50 40" fill="none" xmlns="http://www.w3.org/2000/svg">
<path d="M22.5646 0C22.5121 0 22.4604 0.0148309 22.4159 0.0492914L20.1808 1.61654H18.9803C18.4008 1.61654 17.9282 2.15699 17.9282 2.82266V4.28304C17.9282 4.96045 17.7014 5.60339 17.2912 6.09193L11.9819 12.4251C11.7955 12.6476 11.5333 12.7737 11.2627 12.7737L8.22129 12.7745C7.64177 12.7745 7.16916 13.315 7.16916 13.9806V16.884H6.94275C6.86665 16.884 6.79398 16.9185 6.74071 16.9804L6.48538 17.2731C6.47397 17.2879 6.47739 17.3075 6.46788 17.3237H0.539562C0.46346 17.3237 0.390787 17.3581 0.337514 17.417L0.0821903 17.7123C0.0292992 17.7734 0 17.8576 0 17.944V20.88C0 20.9673 0.0289193 21.048 0.0821903 21.109L0.337514 21.4017C0.390785 21.4628 0.464225 21.4981 0.539562 21.4981H6.46788C6.47701 21.5129 6.47359 21.5374 6.48538 21.5487L6.74071 21.8436C6.79398 21.9046 6.86742 21.9369 6.94275 21.9369H7.16916V24.8428C7.16916 25.5072 7.64175 26.049 8.22129 26.049H11.2624C11.5318 26.049 11.7939 26.1755 11.9815 26.3975L17.2908 32.728C17.7014 33.2165 17.9278 33.8612 17.9278 34.5396V35.9978C17.9278 36.0371 17.938 36.0759 17.9411 36.1152H15.6504C15.287 36.1152 14.9689 36.3943 14.8779 36.7974C14.8772 36.7974 14.8814 36.8122 14.8802 36.8122C14.8677 36.8838 14.8559 36.9579 14.8559 37.0308V39.6746C14.8559 39.8543 14.9833 40 15.1401 40H41.2608H41.2631C41.4187 40 41.5427 39.8534 41.5427 39.6746V37.0435L41.5473 37.0287C41.5473 36.8843 41.5108 36.7534 41.4586 36.6317C41.4583 36.6317 41.459 36.6317 41.4586 36.6317L39.754 30.357V21.7717H39.7562C39.7562 21.6269 39.8575 21.5096 39.9826 21.5096H40.7528C40.9096 21.5096 41.0347 21.3639 41.0347 21.1842V17.8407H41.6474C41.7235 17.8407 41.7962 17.8063 41.8494 17.7443L42.1489 17.398H49.4604C49.5365 17.398 49.6069 17.3635 49.6602 17.3046L49.9155 17.0098C49.9684 16.9487 50 16.8667 50 16.7808V10.9077C50 10.8205 49.9692 10.7372 49.9155 10.6761L49.6602 10.3834C49.6069 10.3224 49.5358 10.2892 49.4604 10.2892H42.1489L41.8494 9.94287C41.7962 9.8818 41.7227 9.84952 41.6474 9.84952H41.0347V6.50341C41.0347 6.3237 40.9096 6.17801 40.7528 6.17801L39.9823 6.17975C39.8575 6.17975 39.7559 6.06241 39.7559 5.91759H39.7536V4.35291C39.7536 2.8013 38.6965 1.50194 37.3453 1.39373L30.7483 0.862877H30.7438C30.6258 0.848047 30.533 0.737688 30.533 0.600717V0.345981C30.533 0.166264 30.4055 0.0205721 30.2487 0.0205721L22.5646 0ZM22.8512 0.651243H23.5635V29.898L22.8512 31.5316V0.651243ZM24.1319 0.651243H26.125V19.0864H24.8686C24.7119 19.0864 24.5844 19.2321 24.5844 19.4122V27.5548L24.1316 28.5929L24.1319 0.651243ZM28.3316 0.651243H29.9652C29.9686 0.700534 29.9872 0.738483 29.9964 0.783847L28.3316 0.651243ZM22.283 0.905977V32.835L20.9865 35.8094C20.9051 35.9996 20.7388 36.1174 20.5535 36.1174H20.5444V2.12257L22.283 0.905977ZM26.6934 1.17336L37.3054 2.02308C38.3597 2.10771 39.1855 3.12187 39.1855 4.33359V30.4C39.1855 30.4 39.1878 30.4 39.1878 30.4149C39.1832 31.8496 38.163 33.0155 36.9104 33.0155L34.1178 33.0151V16.3208C34.1178 16.214 34.0741 16.1136 33.998 16.0539C33.9219 15.9915 33.826 15.9797 33.7381 16.0146L26.6929 18.9532L26.6934 1.17336ZM18.9801 2.26736H19.9766V36.117H18.5226C18.5146 36.0777 18.496 36.0411 18.496 35.9997V2.82225C18.496 2.51517 18.7129 2.26736 18.9801 2.26736ZM17.9279 6.21624V32.6076C17.8553 32.4955 17.7871 32.3813 17.7015 32.2792L12.3919 25.9482C12.3028 25.8431 12.1997 25.7559 12.0924 25.6786V13.144C12.1997 13.0672 12.3032 12.98 12.3919 12.874L17.7011 6.54348C17.7864 6.44185 17.8552 6.32713 17.9275 6.21502L17.9279 6.21624ZM39.7538 6.76323C39.8276 6.78766 39.901 6.81688 39.9825 6.81688H40.4688V10.1577V17.4885V20.8267L39.9825 20.8272C39.901 20.8272 39.8276 20.8568 39.7538 20.8808V6.76323ZM41.0345 10.4883H41.5296L41.7495 10.7374V16.9258L41.5296 17.1779H41.0345V10.4883ZM42.3176 10.9285L49.3403 10.9289L49.4313 11.0305V12.6257H44.5923C44.0128 12.6257 43.5402 13.1675 43.5402 13.8318C43.5402 14.4962 44.0116 15.0405 44.5923 15.0405H49.4313V16.6331L49.3403 16.7373H42.3172L42.3176 10.9285ZM44.5926 13.2769H49.4316V14.3888H44.5926C44.3255 14.3888 44.1086 14.1375 44.1086 13.8313C44.1086 13.5256 44.3255 13.2765 44.5926 13.2765V13.2769ZM11.5246 13.3943V25.4298C11.4386 25.4149 11.3507 25.4001 11.2628 25.4001L8.2214 25.4005C7.95428 25.4005 7.73738 25.1519 7.73738 24.8457V21.6191V17.2247V14.0008C7.73738 13.695 7.95428 13.4459 8.2214 13.4459H11.2625C11.3504 13.4459 11.4383 13.4311 11.5243 13.4163L11.5246 13.3943ZM33.5521 16.7761V35.5596C33.5521 36.224 34.0236 36.7658 34.6042 36.7658H40.7525C40.8758 36.7658 40.974 36.8805 40.9766 37.0227H40.9744V39.3407L15.4196 39.3411V37.0231C15.4196 37.0035 15.433 36.9786 15.433 36.9542C15.4604 36.8408 15.5471 36.7605 15.6506 36.7605H20.5539C20.9549 36.7605 21.3153 36.5053 21.4949 36.0936L25.1261 27.773C25.1432 27.7285 25.155 27.6797 25.155 27.6282V19.7326H26.4091C26.4422 19.7326 26.4746 19.7177 26.5047 19.7129L33.5521 16.7761ZM7.06031 17.5342H7.16914V21.2872H7.06031L6.96937 21.1856V21.1708V17.6567L7.06031 17.5342ZM0.656727 17.9744L6.40318 17.9748V20.8476H0.656337L0.567678 20.7434V20.3264L4.89369 20.326C5.33241 20.326 5.69048 19.9177 5.69048 19.4152C5.69048 18.9109 5.33241 18.5018 4.89369 18.5018H0.567678V18.0791L0.656727 17.9744ZM0.568068 19.1499L4.89369 19.1503C5.02002 19.1503 5.12238 19.2676 5.12238 19.4125C5.12238 19.5555 5.02002 19.6746 4.89369 19.6746L0.567678 19.6742L0.568068 19.1499ZM39.5226 31.6867L40.7258 36.1141L34.6015 36.1146C34.3344 36.1146 34.1175 35.8659 34.1175 35.5597V33.6588H36.9097C38.0798 33.6588 39.0854 32.8462 39.5222 31.6867L39.5226 31.6867Z" fill="white"/>
</svg>
