<svg width="32" height="40" viewBox="0 0 32 40" fill="none" xmlns="http://www.w3.org/2000/svg">
<path d="M31.625 33.75V38.75C31.625 39.4584 31.0769 40 30.36 40H26.565C25.8481 40 25.3 39.4584 25.3 38.75V35H18.8906C18.5955 36.4166 17.3305 37.5 15.8125 37.5C14.2945 37.5 12.9874 36.4166 12.7344 35H6.325V38.75C6.325 39.4584 5.77693 40 5.06 40H1.265C0.54807 40 0 39.4584 0 38.75V30C0 29.2916 0.54807 28.75 1.265 28.75H5.06C5.77693 28.75 6.325 29.2916 6.325 30V33.75H12.7344C12.9874 32.5416 13.9574 31.5416 15.18 31.3335V14.9999H13.915C13.1981 14.9999 12.65 14.4584 12.65 13.75V8.74997C11.9331 8.74997 11.385 8.2084 11.385 7.49997V6.24998H6.325V9.99996C6.325 10.7084 5.77693 11.25 5.06 11.25H1.265C0.54807 11.25 0 10.7084 0 9.99996V1.25C0 0.541569 0.54807 0 1.265 0H5.06C5.77693 0 6.325 0.541569 6.325 1.25V4.99998H11.385V3.74999C11.385 3.04156 11.9331 2.49999 12.65 2.49999H18.975C19.6919 2.49999 20.24 3.04156 20.24 3.74999V4.99998H25.3V1.25C25.3 0.541569 25.8481 0 26.565 0H30.36C31.0769 0 31.625 0.541569 31.625 1.25V9.99996C31.625 10.7084 31.0769 11.25 30.36 11.25H26.565C25.8481 11.25 25.3 10.7084 25.3 9.99996V6.24998H20.24V7.49997C20.24 8.2084 19.6919 8.74997 18.975 8.74997V13.75C18.975 14.4584 18.4269 14.9999 17.71 14.9999H16.445V31.3335C17.6679 31.5835 18.6799 32.5419 18.8906 33.75H25.3V30C25.3 29.2916 25.8481 28.75 26.565 28.75H30.36C31.0769 28.75 31.625 29.2916 31.625 30V33.75ZM15.8125 32.5C14.7584 32.5 13.915 33.3335 13.915 34.375C13.915 35.4166 14.7584 36.25 15.8125 36.25C16.8666 36.25 17.71 35.4166 17.71 34.375C17.71 33.3335 16.8666 32.5 15.8125 32.5ZM17.71 8.75011H13.915V13.7501H17.71V8.75011ZM12.65 7.50012H18.975V5.37627V5.41672V3.75016H12.65V5.87401V5.83355V7.50012ZM1.265 5.00012V10.0001H5.06V1.25014H1.265V5.00012ZM26.565 5.00012V10.0001H30.36V1.25014H26.565V5.00012ZM1.265 33.75V38.75H5.06V30H1.265V33.75ZM26.565 33.75V38.75H30.36V30H26.565V33.75Z" fill="white"/>
</svg>
