<svg width="44" height="30" viewBox="0 0 44 30" fill="none" xmlns="http://www.w3.org/2000/svg">
<path d="M41.6154 0.810303H1.6344C0.748266 0.810303 0.0258789 1.72041 0.0258789 2.83875V27.0202C0.0258789 28.1366 0.748275 29.0467 1.6344 29.0467H41.6154C42.5031 29.0467 43.2255 28.1366 43.2255 27.0202L43.2259 2.83875C43.2259 1.71997 42.5035 0.809814 41.6158 0.809814L41.6154 0.810303ZM1.6344 2.46909H41.6154C41.7776 2.46909 41.9091 2.63479 41.9091 2.83915V15.0201H38.9585C38.6891 15.0201 38.4465 15.2283 38.3468 15.5439L36.7735 20.5495L35.8427 15.6575C35.7722 15.2836 35.5072 15.0205 35.2036 15.0205H31.1922L29.2194 5.51734C29.1425 5.14728 28.884 4.83165 28.5645 4.90041C28.2578 4.91043 27.9994 5.18739 27.9383 5.56604L26.436 15.0205H23.3633C23.0681 15.0205 22.8096 15.2693 22.7307 15.6251L21.726 20.1331L20.8752 5.64284C20.8509 5.23219 20.5909 4.90462 20.2653 4.87646C19.9428 4.89078 19.6456 5.12715 19.5782 5.52968L17.9617 15.021H17.082C16.7545 15.021 16.4782 15.3242 16.432 15.7329L16.05 19.0702L15.5538 15.6991C15.4958 15.3066 15.2233 15.0215 14.9069 15.0215H13.661L11.5533 4.58382C11.4809 4.22378 11.2274 3.96928 10.9321 3.96068C10.6497 3.86947 10.375 4.1894 10.2885 4.54322L7.71694 15.0215L1.34274 15.0205V2.83959C1.34274 2.63522 1.47274 2.46953 1.63458 2.46953L1.6344 2.46909ZM41.6154 27.3889H1.6344C1.47218 27.3889 1.34218 27.2251 1.34218 27.0207V16.6782H8.20151C8.49032 16.6782 8.74426 16.4413 8.82916 16.0937L10.855 7.84252L12.5132 16.0536C12.5871 16.4218 12.8505 16.6787 13.1503 16.6787H14.359L15.4827 24.3153C15.5422 24.7136 15.8311 24.9485 16.1426 24.9929C16.4651 24.9848 16.735 24.6835 16.7797 24.281L17.6515 16.6787H18.4925C18.8021 16.6787 19.0705 16.4056 19.1345 16.0236L19.9016 11.5237L20.69 24.9628C20.7124 25.3653 20.9614 25.6866 21.279 25.7272C21.3013 25.7291 21.3241 25.7311 21.3449 25.7311C21.6371 25.7311 21.8971 25.4866 21.9775 25.1265L23.8604 16.6792H26.9748C27.2879 16.6792 27.5573 16.4003 27.6202 16.0116L28.6686 9.41264L30.0493 16.0604C30.1247 16.4243 30.3866 16.6792 30.6849 16.6792H34.6853L35.9809 23.4846C36.0468 23.8365 36.2875 24.0934 36.5733 24.1196C36.8511 24.1196 37.1255 23.9334 37.2316 23.5977L39.4052 16.6792H41.9094V27.0218C41.9094 27.2257 41.7775 27.3895 41.6156 27.3895L41.6154 27.3889Z" fill="white"/>
</svg>
