<svg width="40" height="44" viewBox="0 0 40 44" fill="none" xmlns="http://www.w3.org/2000/svg">
<path d="M23.1013 20.2412L23.3823 22.0107C22.8899 22.0885 22.3972 22.062 21.9288 21.9289L21.9288 21.9289L21.9203 21.9266C21.3262 21.7663 20.817 21.4414 20.4758 21.0639L19.9345 20.4652L19.4488 21.1098L14.2236 28.0439L7.73944 23.1578L9.58966 20.7024C9.5905 20.7019 9.59144 20.7013 9.59249 20.7007L11.4248 19.9101L11.4323 19.9068L11.4397 19.9034C11.6131 19.8235 11.789 19.6961 11.9284 19.5111L17.8409 11.6649C17.8718 11.6239 17.9031 11.6122 17.9165 11.6097C17.9175 11.6095 17.9184 11.6094 17.9192 11.6093L23.4402 15.7696C23.4402 15.7697 23.4402 15.7697 23.4402 15.7698C23.4411 15.78 23.4395 15.8138 23.4059 15.8584L21.4953 18.3939L21.1984 18.7878L21.4565 19.1432C21.4645 19.1604 21.4751 19.183 21.4865 19.2062C21.5264 19.2876 21.5877 19.4008 21.6793 19.5223C21.7833 19.6602 21.922 19.8028 22.1041 19.9252L22.0937 20.0137L22.6374 20.1703C22.7908 20.2145 22.9464 20.2376 23.1013 20.2412ZM21.4375 19.1027C21.4374 19.1024 21.439 19.1054 21.4425 19.1128C21.4393 19.1067 21.4376 19.103 21.4375 19.1027Z" stroke="white" stroke-width="1.33333"/>
<path d="M18.9738 9.05333C18.8435 9.22625 18.8634 9.46062 19.0186 9.57762L19.1737 9.69447C19.3229 9.80692 19.3419 10.0298 19.2335 10.1988L24.4611 14.1381L25.6747 12.5275L19.7312 8.04876L18.9738 9.05333Z" fill="white"/>
<path d="M26.2465 10.0268L25.9908 10.3661L21.7208 7.14851L21.9767 6.80893L23.0599 5.37154L23.3156 5.03218L23.6497 5.2839L24.0509 4.75148L24.9686 3.53364L25.3698 3.00121L24.8374 2.6C24.8575 2.61515 24.892 2.65454 24.9018 2.72028C24.9091 2.76955 24.8986 2.80641 24.8899 2.82629C24.8885 2.82965 24.8871 2.83253 24.8858 2.8349C24.884 2.83674 24.8819 2.83868 24.8796 2.84068C24.848 2.86789 24.7699 2.90611 24.6706 2.84595L24.7436 2.7382L24.751 2.72728L24.8357 2.6022L25.3703 1.8127L30.2265 5.47204L29.4737 6.09372L28.9714 5.71525L28.5702 6.24767L27.6525 7.46551L27.2513 7.99794L27.5856 8.24981L27.3297 8.5894L26.2465 10.0268ZM26.8219 10.9924L26.8217 10.9923L26.8219 10.9924ZM20.8901 6.52247C20.8901 6.52253 20.8902 6.5226 20.8903 6.52266L20.8901 6.52247ZM29.4066 6.07244C29.426 6.0761 29.4483 6.08323 29.4714 6.09563L29.3811 6.1702L29.3705 6.17892L29.3498 6.196L29.2929 6.24303C29.2532 6.16197 29.283 6.10901 29.2891 6.10088C29.291 6.09839 29.2968 6.09171 29.308 6.08462C29.312 6.08207 29.3164 6.07967 29.3211 6.0775C29.3262 6.07519 29.3316 6.07315 29.3373 6.07145C29.3412 6.07082 29.3452 6.07031 29.3491 6.06992C29.3686 6.06797 29.3877 6.06889 29.4066 6.07244ZM28.5618 8.68309L28.5616 8.68294L28.5618 8.68309Z" fill="white" stroke="white" stroke-width="1.33333"/>
<path d="M10.7853 32.606L10.3841 33.1384L10.9165 33.5396L11.0726 33.6573L11.0728 33.6574C11.252 33.7925 11.3555 34.1413 11.0925 34.4903C10.8415 34.8234 10.4782 34.827 10.2953 34.6892L8.66835 33.4632L8.13593 33.062L7.73472 33.5944L6.12719 35.7276L3.50602 33.7525L5.11356 31.6192L5.51477 31.0868L4.98234 30.6856L3.35539 29.4596C3.17251 29.3217 3.07578 28.9715 3.32678 28.6385C3.58977 28.2895 3.95365 28.2928 4.13286 28.4278L4.28667 28.5437L4.81909 28.9449L5.2203 28.4125L7.10436 25.9123L12.6693 30.1058L10.7853 32.606Z" stroke="white" stroke-width="1.33333"/>
<path d="M29.4696 16.1558L25.1196 17.2192C24.7482 17.3159 24.4945 17.6994 24.5502 18.074L25.4242 23.5397C25.4796 23.9144 25.8238 24.1418 26.1953 24.0451L30.5453 22.9816L29.4696 16.1558Z" fill="white"/>
</svg>
