<svg width="46" height="41" viewBox="0 0 46 41" fill="none" xmlns="http://www.w3.org/2000/svg">
<path d="M22.5182 11.264C22.8553 11.1829 23.2113 11.3089 23.4641 11.543L23.4827 11.5615L23.1639 11.8659C22.9392 12.0912 22.9392 12.4512 23.1639 12.6765L23.6134 13.1087L25.7206 11.0908L25.2712 10.6586C25.0369 10.4333 24.6623 10.4333 24.4284 10.6586L24.1129 10.9598L24.0544 10.9036C23.8202 10.6783 23.7078 10.3541 23.7921 10.057C23.9512 9.48046 23.8015 8.84083 23.3331 8.39028C22.509 7.59764 21.0665 7.75064 20.4765 8.8408C20.2142 9.31833 20.2142 9.90395 20.4765 10.3811C20.907 11.1555 21.7593 11.4531 22.5182 11.264ZM21.4127 8.96683C21.7779 8.61559 22.3682 8.61559 22.7425 8.96683C23.1077 9.31807 23.1077 9.89455 22.7425 10.2458C22.3773 10.597 21.7779 10.597 21.4127 10.2458C21.0475 9.89453 21.0475 9.31805 21.4127 8.96683Z" fill="white"/>
<path d="M31.1202 3.59067C31.4982 3.51635 31.8862 3.63187 32.1624 3.85513L32.1816 3.87069L31.8349 4.151C31.5795 4.35756 31.5795 4.6877 31.8349 4.8862L32.3252 5.28261L34.6235 3.43222L34.1332 3.03581C33.8778 2.82925 33.4692 2.82925 33.2141 3.03581L32.8713 3.31324L32.8061 3.26023C32.5507 3.06202 32.4281 2.76472 32.52 2.48386C32.6935 1.95522 32.5304 1.36898 32.0195 0.964239C31.1206 0.229038 29.5473 0.36934 28.8936 1.369C28.6178 1.80661 28.6178 2.34361 28.9035 2.78146C29.3735 3.49967 30.303 3.76411 31.1203 3.59072L31.1202 3.59067ZM29.925 1.48422C30.3233 1.16214 30.9671 1.16214 31.3654 1.48422C31.7637 1.81466 31.7637 2.33493 31.3654 2.657C30.9671 2.97908 30.3233 2.97908 29.925 2.657C29.5267 2.33492 29.5267 1.80629 29.925 1.48422Z" fill="white"/>
<path d="M41.2993 0.509735C41.1058 0.477483 40.9123 0.525862 40.7741 0.647513L40.0645 1.27219C42.0366 2.05897 44.2297 3.98965 45.1235 5.71739L45.8238 5.10092C45.962 4.97926 46.0266 4.80074 45.9897 4.63042C45.6673 3.12163 43.0136 0.793504 41.2993 0.509735Z" fill="white"/>
<path d="M24.2352 22.1671L16.2106 29.4666C15.4238 28.334 14.2437 27.237 13.0154 26.4858L21.0033 19.2272L24.2352 22.1671Z" stroke="white" stroke-width="1.33333"/>
<path d="M10.0269 27.4657C9.82884 27.4326 9.63079 27.4905 9.48932 27.6143L7.91406 29.0429C9.15899 29.3237 10.2911 29.8933 11.2251 30.711C12.1592 31.5286 12.7816 32.503 13.1116 33.5435L14.6585 32.1395C14.8 32.0156 14.8661 31.8423 14.8283 31.6689C14.4983 30.1329 11.7814 27.7546 10.0268 27.4657L10.0269 27.4657Z" fill="white"/>
<path d="M1.81025 31.5929C-0.60359 33.6294 -0.603242 36.9358 1.81025 38.9723C4.22409 41.0092 8.14194 41.0092 10.5553 38.9723C12.9692 36.9354 12.9688 33.6294 10.5553 31.5929C8.14185 29.556 4.224 29.556 1.81025 31.5929ZM7.93199 36.7586C6.96546 37.5742 5.4003 37.5742 4.43369 36.7586C3.46716 35.9433 3.46716 34.6223 4.43369 33.8069C5.40022 32.9913 6.96538 32.9913 7.93164 33.8069C8.89852 34.6219 8.89852 35.9429 7.93199 36.7586Z" fill="white"/>
<path d="M37.9851 3.05645C38.1316 2.92776 38.364 2.8697 38.5739 2.9289L38.5739 2.92893C39.4125 3.16531 40.4726 3.81491 41.4155 4.64373C42.3647 5.47806 43.0852 6.39736 43.3404 7.09714L43.3406 7.09742C43.3707 7.18006 43.3605 7.30911 43.2213 7.43144L27.7946 20.9917L27.7946 20.9918C27.5735 21.1861 27.1841 21.1862 26.9629 20.9917L22.5585 17.1202L22.5585 17.1201C22.3876 16.97 22.3876 16.7669 22.5585 16.6167L37.9851 3.05645Z" stroke="white" stroke-width="1.33333"/>
</svg>
