<svg width="42" height="40" viewBox="0 0 42 40" fill="none" xmlns="http://www.w3.org/2000/svg">
<path d="M40.6964 5.07675H38.5341C38.3715 3.97853 37.3787 3.13088 36.1816 3.13088C34.8712 3.13088 33.8054 4.14624 33.8054 5.39432V6.87926H32.3213C32.2509 6.54835 32.1777 6.30867 32.1443 6.20682V4.34267C32.1443 4.04607 31.8953 3.84127 31.5467 3.69952C31.8953 3.55778 32.1443 3.35298 32.1443 3.05638V1.14258C32.1443 0.209002 29.6781 0.18193 29.3972 0.18193C29.116 0.18193 26.6498 0.208995 26.6498 1.14258V2.10352H25.9725V0.997223C25.9725 0.0279288 23.3833 0 23.088 0C22.7926 0 20.2038 0.0279016 20.2038 0.997223V2.10352H19.5265V1.14258C19.5265 0.209002 17.0603 0.18193 16.7794 0.18193C16.4981 0.18193 14.032 0.208995 14.032 1.14258V3.05638C14.032 3.35298 14.281 3.55778 14.6296 3.69952C14.281 3.84127 14.032 4.04607 14.032 4.34267V4.81198C12.8625 4.82481 10.6638 4.95735 10.6638 6.34156V8.46236H9.35195V5.12805C9.35195 4.96511 9.22245 4.83229 9.05664 4.81415V2.59178C9.05664 2.1911 8.71446 1.86549 8.29376 1.86549H6.68978C6.26909 1.86549 5.9269 2.19138 5.9269 2.59178V4.81415C5.7608 4.83229 5.6316 4.96511 5.6316 5.12805V7.75779C5.25046 7.42073 4.79927 7.28038 4.33023 7.37441C3.50968 7.53876 2.64863 8.44528 2.23179 10.4224H0.899076C0.403384 10.4224 0 10.8066 0 11.2787V15.1574C0 15.6295 0.403406 16.0137 0.899076 16.0137H2.23179C2.64867 17.9909 3.50938 18.8971 4.33023 19.0617C5.08636 19.2135 5.79622 18.7598 6.24006 17.8471C6.45655 17.67 7.50655 16.9018 9.13625 17.1758C9.17141 17.5634 9.15354 18.4917 8.41264 19.5612C8.36108 19.6357 8.34467 19.7269 8.36753 19.8134C8.39038 19.8996 8.45014 19.973 8.53246 20.0154L14.3147 22.9903C14.3639 23.0157 14.4184 23.0285 14.4731 23.0285C14.5209 23.0285 14.5686 23.0188 14.6129 22.9993C14.6993 22.9613 16.4952 22.153 16.922 20.6223L17.517 21.1639C17.5791 21.2205 17.6614 21.2518 17.7473 21.2518H18.7108C18.9358 22.9683 19.4072 26.3517 19.6749 26.7568C19.7435 26.8603 19.8425 26.9569 19.9685 27.0456L20.1144 30.1358C18.8207 30.2027 17.5621 30.6388 17.5621 31.3953V38.3538C17.5621 39.4849 20.427 40 23.0888 40C25.7506 40 28.6155 39.4849 28.6155 38.3538V31.3953C28.6155 30.6391 27.3569 30.2028 26.0632 30.1358L26.2091 27.0456C26.3351 26.9569 26.4341 26.8606 26.5027 26.7568C26.7704 26.3517 27.2418 22.968 27.4668 21.2515H28.4303C28.5162 21.2515 28.5988 21.22 28.6606 21.1636L29.2125 20.6614C29.7718 21.2158 30.4981 21.5179 31.2372 21.5179C31.5155 21.5179 31.7956 21.4752 32.0689 21.3871C33.0413 21.0735 33.6451 20.2584 33.6451 19.2598V19.0263H37.0865C37.187 19.6042 37.5016 20.317 38.2226 20.317H40.6975C41.4156 20.317 42 19.7607 42 19.0765L41.9988 6.31713C41.9988 5.63325 41.4147 5.07662 40.6963 5.07662L40.6964 5.07675ZM41.3322 6.31726V10.9858H38.5581V5.71175H40.6965C41.0471 5.71175 41.3322 5.98327 41.3322 6.31726ZM37.8913 7.51427V10.9859H32.0368V10.4817C32.5261 9.48331 32.5357 8.36445 32.4288 7.5143L37.8913 7.51427ZM20.8705 1.67994C21.6589 1.98128 22.8902 1.99439 23.0882 1.99439C23.2863 1.99439 24.5176 1.98127 25.3059 1.67994V2.98409C25.1647 3.12723 24.3927 3.38225 23.0882 3.38225C21.7836 3.38225 21.0117 3.12723 20.8705 2.98409V1.67994ZM21.0076 6.21512V5.01254C21.7593 5.29127 22.9022 5.30327 23.0882 5.30327C23.2743 5.30327 24.4168 5.29128 25.1688 5.01254L25.1685 6.21512C25.0241 6.34849 24.2958 6.58231 23.0879 6.58231C21.8803 6.58231 21.1521 6.34849 21.0076 6.21512ZM29.3969 7.21705C29.5964 7.21705 30.896 7.2031 31.634 6.8613C31.8033 7.59009 32.0045 8.97989 31.4649 10.1476C30.828 10.3156 27.9801 10.9858 23.0876 10.9858C18.1949 10.9858 15.3471 10.3156 14.7104 10.1476C14.1725 8.98296 14.3732 7.59152 14.5419 6.86159C15.2799 7.2031 16.5789 7.21706 16.7784 7.21706L29.3968 7.21734L29.3969 7.21705ZM27.3163 6.21512V5.01254C28.068 5.29127 29.2109 5.30327 29.3969 5.30327C29.5829 5.30327 30.7255 5.29128 31.4775 5.01254V6.21512C31.3331 6.34849 30.6048 6.58231 29.3969 6.58231C28.1891 6.58231 27.4608 6.34849 27.3163 6.21512ZM18.8596 6.21512C18.7151 6.34849 17.9868 6.58231 16.779 6.58231C15.5711 6.58231 14.8428 6.34877 14.6984 6.21512V5.01254C15.4501 5.29127 16.593 5.30327 16.779 5.30327C16.965 5.30327 18.1075 5.29128 18.8596 5.01254V6.21512ZM14.8058 10.8296C15.8171 11.0743 18.58 11.6206 23.0879 11.6206C27.5956 11.6206 30.3585 11.074 31.3699 10.8296V17.6371H14.8058V10.8296ZM31.9339 18.1839C31.9998 18.1239 32.037 18.0411 32.037 17.9543V11.6202H37.8915V18.3915H31.7054L31.9339 18.1839ZM27.3168 3.01452V1.81222C28.0686 2.09096 29.2114 2.10296 29.3974 2.10296C29.5835 2.10296 30.726 2.09096 31.478 1.81222V3.0148C31.3336 3.14818 30.6053 3.38199 29.3974 3.38199C28.1896 3.38171 27.4613 3.14817 27.3168 3.01452ZM26.6501 2.73801V3.05581C26.6501 3.35241 26.8991 3.55721 27.2477 3.69895C26.8991 3.8407 26.6501 4.0455 26.6501 4.34209V6.2559C26.6501 6.38006 26.6946 6.48748 26.7708 6.58151H25.7149C25.7911 6.48748 25.8356 6.37978 25.8356 6.2559V4.34238C25.8356 4.05638 25.6036 3.85549 25.274 3.7143C25.6766 3.56642 25.9725 3.34684 25.9725 3.01926V2.73801H26.6501ZM20.2041 2.73801V3.01926C20.2041 3.34655 20.5 3.56642 20.9025 3.7143C20.5732 3.85549 20.3409 4.05611 20.3409 4.34238V6.25618C20.3409 6.38035 20.3854 6.48777 20.4616 6.5818H19.4058C19.4819 6.48777 19.5265 6.38007 19.5265 6.25618L19.5268 4.34238C19.5268 4.04578 19.2777 3.84098 18.9291 3.69924C19.2777 3.55749 19.5268 3.35269 19.5268 3.0561V2.73829L20.2041 2.73801ZM14.6988 3.01452V1.81222C15.4505 2.09096 16.5934 2.10296 16.7794 2.10296C16.9654 2.10296 18.1079 2.09096 18.86 1.81222V3.0148C18.7155 3.14818 17.9872 3.38199 16.7794 3.38199C15.5715 3.38171 14.8432 3.14817 14.6988 3.01452ZM8.39016 4.81032H6.59404V4.10886H8.39016V4.81032ZM4.468 18.4404C3.5888 18.2644 2.64285 16.5548 2.64285 13.218C2.64285 9.88122 3.5891 8.1717 4.468 7.99563C4.86027 7.91639 5.25637 8.17839 5.55344 8.70072C5.08704 9.13794 4.06196 10.4172 4.06196 13.218C4.06196 16.0188 5.08703 17.2981 5.55344 17.7354C5.25638 18.2574 4.86117 18.5189 4.468 18.4404ZM14.4765 22.352L9.15949 19.6165C10.0612 18.1156 9.77061 16.8908 9.75684 16.8363C9.72754 16.7192 9.63086 16.6276 9.50782 16.6006C7.71725 16.206 6.4716 16.8863 5.97264 17.2393C5.58974 16.8612 4.72843 15.7312 4.72843 13.218C4.72843 10.4496 5.79977 9.34211 6.08364 9.09718H10.6635V12.2554C10.6635 12.4306 10.8126 12.5729 10.9969 12.5729C11.1808 12.5729 11.3302 12.4309 11.3302 12.2554L11.3305 6.3413C11.3305 6.22272 11.3305 5.86223 12.2525 5.63259C12.6957 5.52237 13.2802 5.46155 14.032 5.44816V6.20652C13.9121 6.57148 13.2738 8.7149 14.1395 10.4811V16.6849C13.8594 16.4832 13.5117 16.3618 13.1341 16.3618C12.2121 16.3618 11.4621 17.0761 11.4621 17.9542C11.4621 18.8322 12.2121 19.5465 13.1341 19.5465C13.8246 19.5465 14.4184 19.1459 14.6732 18.5758L16.3407 20.0937C16.2514 21.3231 14.9207 22.1193 14.4764 22.3521L14.4765 22.352ZM18.2284 38.3536V32.2353C18.9356 32.6225 20.1288 32.8645 21.431 32.9733V39.2959C19.3138 39.1103 18.2284 38.5986 18.2284 38.3537V38.3536ZM22.0978 39.3407V33.0173C22.4274 33.0332 22.7593 33.0413 23.0886 33.0413C23.4176 33.0413 23.7498 33.0335 24.0794 33.0173V39.3407C23.7671 39.3561 23.4379 39.365 23.0886 39.365C22.7394 39.3647 22.4098 39.3561 22.0978 39.3407ZM24.7459 39.2958V32.9732C26.0481 32.8644 27.2414 32.6225 27.9486 32.2352V38.3535C27.9486 38.5985 26.8631 39.1103 24.7459 39.2958ZM25.3855 30.3515C25.1748 30.467 24.3801 30.6464 23.0887 30.6464C21.7973 30.6464 21.0025 30.467 20.7918 30.3515L20.6512 27.3702C21.2679 27.5738 22.1114 27.6885 23.089 27.6885C24.0666 27.6885 24.91 27.5738 25.5267 27.3702L25.3855 30.3515ZM28.2961 20.6164H17.8811L15.3045 18.2712H30.8726L28.2961 20.6164ZM40.697 19.682H38.222C37.9842 19.682 37.8386 19.3368 37.7677 19.026H38.2253C38.4093 19.026 38.5587 18.884 38.5587 18.7085V11.6197L41.3327 11.62V19.0764C41.3327 19.4104 41.0477 19.682 40.697 19.682Z" fill="white"/>
<path d="M10.4086 14.4653C9.33298 14.4653 8.45801 15.3046 8.45801 16.3364C8.45801 17.3681 9.33298 18.2074 10.4086 18.2074C11.4842 18.2074 12.3592 17.3681 12.3592 16.3364C12.3592 15.305 11.4842 14.4653 10.4086 14.4653Z" fill="white"/>
</svg>
