<svg width="52" height="39" viewBox="0 0 52 39" fill="none" xmlns="http://www.w3.org/2000/svg">
<path d="M37.5358 9.59521C30.9504 9.59521 25.6108 14.3745 25.6108 20.2688C25.6108 26.1613 30.9493 30.9405 37.5358 30.9405C44.1225 30.9405 49.4629 26.1616 49.4629 20.2688C49.4625 14.3748 44.1223 9.59521 37.5358 9.59521ZM37.5358 27.2873C33.2041 27.2873 29.6925 24.1443 29.6925 20.2681C29.6925 16.3905 33.204 13.2476 37.5358 13.2476C41.8688 13.2476 45.3816 16.3905 45.3816 20.2681C45.3816 24.1443 41.8688 27.2873 37.5358 27.2873Z" fill="white"/>
<path d="M37.4966 16.2232C39.9934 16.2232 42.0154 18.0347 42.0154 20.2689C42.0154 22.5013 39.9929 24.3109 37.4966 24.3109C35.0007 24.3109 32.977 22.5012 32.977 20.2689C32.977 18.0351 35.0006 16.2232 37.4966 16.2232ZM37.4966 15.1172C34.3227 15.1172 31.7378 17.4271 31.7378 20.2693C31.7378 23.1094 34.3228 25.4192 37.4966 25.4192C40.6709 25.4192 43.2547 23.1093 43.2547 20.2693C43.2547 17.4271 40.6713 15.1172 37.4966 15.1172Z" fill="white"/>
<path d="M13.5655 24.2241C9.83264 24.2241 6.80713 26.9293 6.80713 30.2695C6.80713 33.6083 9.83223 36.3171 13.5655 36.3171C17.2967 36.3171 20.3239 33.6083 20.3239 30.2695C20.3239 26.9288 17.2963 24.2241 13.5655 24.2241ZM13.5655 34.2468C11.1098 34.2468 9.12052 32.4675 9.12052 30.2693C9.12052 28.0741 11.1098 26.2918 13.5655 26.2918C16.0204 26.2918 18.0105 28.0741 18.0105 30.2693C18.0105 32.4671 16.02 34.2468 13.5655 34.2468Z" fill="white"/>
<path d="M13.5654 28.3371C14.758 28.3371 15.7264 29.203 15.7264 30.2702C15.7264 31.3374 14.7587 32.2039 13.5654 32.2039C12.3724 32.2039 11.4051 31.3373 11.4051 30.2702C11.4051 29.203 12.3723 28.3371 13.5654 28.3371ZM13.5654 27.4023C11.7968 27.4023 10.3608 28.6877 10.3608 30.2701C10.3608 31.8512 11.7972 33.1379 13.5654 33.1379C15.3322 33.1379 16.7702 31.8511 16.7702 30.2701C16.7698 28.6876 15.3318 27.4023 13.5654 27.4023Z" fill="white"/>
<path d="M11.4891 2.23975C6.52301 2.23975 2.5 5.84112 2.5 10.2846C2.5 14.7277 6.52301 18.3304 11.4891 18.3304C16.4544 18.3304 20.4807 14.7273 20.4807 10.2846C20.4803 5.84186 16.4544 2.23975 11.4891 2.23975ZM11.4891 15.575C8.22344 15.575 5.57627 13.2077 5.57627 10.2844C5.57627 7.36105 8.22416 4.9934 11.4891 4.9934C14.7548 4.9934 17.4031 7.36169 17.4031 10.2844C17.4031 13.2071 14.7553 15.575 11.4891 15.575Z" fill="white"/>
<path d="M11.4891 7.57316C13.1629 7.57316 14.5194 8.78676 14.5194 10.2837C14.5194 11.7815 13.1629 12.9929 11.4891 12.9929C9.81651 12.9929 8.45997 11.7815 8.45997 10.2837C8.45956 8.78667 9.81693 7.57316 11.4891 7.57316ZM11.4891 6.58936C9.21201 6.58936 7.36084 8.24758 7.36084 10.2842C7.36084 12.321 9.21191 13.9792 11.4891 13.9792C13.7662 13.9792 15.6185 12.321 15.6185 10.2842C15.6185 8.24758 13.7666 6.58936 11.4891 6.58936Z" fill="white"/>
<path d="M52 20.2688C52 14.4928 47.7529 9.59247 41.9045 7.92972L41.9138 7.90375L15.5267 0.6506L15.5215 0.666468C14.2637 0.243079 12.9087 0 11.4896 0C5.15402 0.00144256 0 4.61407 0 10.284C0 10.9933 0.0797999 11.6854 0.234156 12.3555H0.224081L4.76173 31.6263C4.79679 31.8221 4.84435 32.014 4.89674 32.2044L5.00717 32.6754L5.03337 32.6696C6.17676 35.9324 9.58556 38.3071 13.6041 38.3071C14.2131 38.3071 14.8084 38.2498 15.3843 38.1463L15.3932 38.1809L39.075 33.1359C46.3303 32.4467 51.9998 26.9382 51.9998 20.2677L52 20.2688ZM11.4893 1.10975C17.143 1.10975 21.7447 5.225 21.7447 10.2852C21.7447 15.3454 17.1426 19.4614 11.4893 19.4614C5.83404 19.4614 1.23665 15.3454 1.23665 10.2852C1.23706 5.22537 5.83362 1.10975 11.4893 1.10975ZM6.10766 31.981L5.97144 31.4073C5.90332 31.0354 5.85858 30.6593 5.85858 30.2712C5.85858 26.4506 9.3327 23.3412 13.6031 23.3412C17.8716 23.3412 21.3474 26.451 21.3474 30.2712C21.3474 34.0915 17.8724 37.1995 13.6031 37.1995C9.99436 37.1995 6.96288 34.9761 6.10766 31.981ZM22.5858 30.2709C22.5858 25.8397 18.5551 22.233 13.6034 22.233C9.65534 22.233 6.30142 24.5281 5.1016 27.7003L2.50726 16.6806C4.6143 19.046 7.85462 20.5697 11.4896 20.5697C17.826 20.5697 22.9823 15.9564 22.9823 10.2857C22.9823 7.38325 21.6257 4.76255 19.4566 2.89151L35.9017 7.41068C28.6944 8.14025 23.0729 13.6263 23.0729 20.2705C23.0729 26.5118 28.0378 31.7399 34.6233 32.9475L19.7475 36.1175C21.4903 34.6497 22.5853 32.5761 22.5853 30.2712L22.5858 30.2709ZM38.9617 32.0323L38.9577 32.0229L38.8658 32.0431C38.4285 32.082 37.9852 32.1019 37.5358 32.1019C30.243 32.1019 24.3108 26.7925 24.3108 20.2687C24.3108 13.7429 30.243 8.43186 37.5358 8.43186C44.8286 8.43186 50.7618 13.7426 50.7618 20.2687C50.761 26.3632 45.5849 31.3938 38.9617 32.0317L38.9617 32.0323Z" fill="white"/>
</svg>
