<svg width="19" height="19" viewBox="0 0 19 19" fill="none" xmlns="http://www.w3.org/2000/svg">
<path d="M9.38826 0.287048C4.4775 0.287048 0.5 4.26455 0.5 9.17531C0.5 14.0861 4.4775 18.0636 9.38826 18.0636C14.299 18.0636 18.2765 14.0861 18.2765 9.17531C18.2765 4.26455 14.299 0.287048 9.38826 0.287048ZM9.38826 2.50911C10.1215 2.50911 10.8104 2.7091 11.477 2.93131C11.0104 3.37572 10.4771 3.77569 10.566 4.17566C10.6548 4.57563 12.0992 4.46453 12.0992 5.2867C12.0992 5.88665 11.1659 6.06442 11.8103 6.75326C12.588 7.53098 10.3882 8.93088 10.3438 9.95303C10.2771 11.7973 12.2103 12.1084 13.7435 12.1084C14.6768 12.1084 14.9212 12.5529 14.8545 13.0861C13.6546 14.7971 11.6103 15.8637 9.36604 15.8637C8.52166 15.8637 7.74393 15.6637 7.01065 15.3749C7.49951 14.3972 6.38847 12.464 5.3441 11.8418C4.83303 11.3307 3.74422 11.5307 3.12204 11.2863C2.92205 10.6863 2.72207 10.0864 2.69985 9.41974C2.76651 9.30864 2.87761 9.21975 3.05538 9.21975C3.47757 9.21975 4.05531 10.0641 4.36639 9.97526C4.76637 9.88637 2.72207 7.06435 3.67755 6.50883C4.12197 6.24218 5.01079 7.37544 4.72192 6.1533C4.45528 5.02005 5.52187 5.53112 6.18849 5.24225C6.76622 4.99783 7.18842 4.33121 6.47736 3.93124C6.34403 3.86457 6.18849 3.70903 5.9885 3.50904C6.98843 2.90909 8.14391 2.53133 9.38826 2.53133V2.50911ZM14.5212 4.93117C14.9212 5.42002 15.2323 5.95332 15.4989 6.53105V6.59771C15.4101 6.75326 15.2545 6.84214 15.0101 7.08657C14.3879 7.70875 14.299 6.61994 14.0324 6.39773C13.7435 6.13108 12.6991 6.44217 12.5658 6.10886C12.4103 5.70889 13.6768 5.17559 14.5212 4.93117Z" fill="#C00000"/>
</svg>
