<svg width="19" height="19" viewBox="0 0 19 19" fill="none" xmlns="http://www.w3.org/2000/svg">
<path d="M4.12 7.85357C5.56 10.6836 7.88 12.9936 10.71 14.4436L12.91 12.2436C13.18 11.9736 13.58 11.8836 13.93 12.0036C15.05 12.3736 16.26 12.5736 17.5 12.5736C18.05 12.5736 18.5 13.0236 18.5 13.5736V17.0636C18.5 17.6136 18.05 18.0636 17.5 18.0636C8.11 18.0636 0.5 10.4536 0.5 1.06357C0.5 0.513568 0.95 0.0635681 1.5 0.0635681H5C5.55 0.0635681 6 0.513568 6 1.06357C6 2.31357 6.2 3.51357 6.57 4.63357C6.68 4.98357 6.6 5.37357 6.32 5.65357L4.12 7.85357Z" fill="#C00000"/>
</svg>
