<svg width="19" height="21" viewBox="0 0 19 21" fill="none" xmlns="http://www.w3.org/2000/svg">
<path d="M5.57176 0V2.53588H8.10764V2.61196C3.79664 3.22057 0.5 6.94831 0.5 11.4115C0.5 16.3057 4.48133 20.287 9.37558 20.287C14.2698 20.287 18.2512 16.3057 18.2512 11.4115C18.2512 10.2703 17.9976 9.20525 17.6172 8.24161L15.3095 9.20525C15.5885 9.94065 15.7153 10.6507 15.7153 11.4368C15.7153 14.9617 12.9005 17.7765 9.37558 17.7765C5.85071 17.7765 3.03588 14.9617 3.03588 11.4368C3.03588 7.91195 5.85071 5.09712 9.37558 5.09712C10.1363 5.09712 10.8718 5.22391 11.6072 5.50286L12.4694 3.11913C11.8861 2.91626 11.2775 2.81483 10.6435 2.71339V2.56124H13.1794V0.0253588H5.57176V0ZM18.2512 2.94162C18.2512 2.94162 8.9952 10.0674 8.51338 10.5493C8.03157 11.0564 8.03157 11.7918 8.51338 12.299C8.9952 12.8062 9.75596 12.8062 10.2631 12.299C10.7703 11.7918 18.2765 2.94162 18.2765 2.94162H18.2512Z" fill="#C00000"/>
</svg>
