<svg width="282" height="221" viewBox="0 0 282 221" fill="none" xmlns="http://www.w3.org/2000/svg">
<path d="M69.4231 31.4735H72.9871C78.0525 30.771 82.5569 27.9569 85.1826 23.9122L55.1628 21.626C57.416 27.0778 62.8563 30.9455 69.4231 31.4735Z" fill="white"/>
<path d="M101.319 21.6275L94.3778 21.0996L86.8729 20.5717L54.0388 18.1109L46.3452 17.583L39.967 17.0551L54.6022 11.0777C56.4784 5.27476 61.9184 0.878942 68.4853 0.176616C69.6118 -6.58771e-07 70.7363 0 72.0492 0C80.1176 0.5279 86.3097 6.33098 87.4338 13.3643L101.319 21.6275Z" fill="white"/>
<path d="M278.06 111.126C257.422 96.3572 231.904 87.9168 206.013 87.2119V67.3443C206.013 60.311 212.016 54.6849 219.521 54.6849V47.6516C207.889 47.6516 198.508 56.4432 198.508 67.3443V87.3883C186.312 87.7395 174.492 89.6745 162.859 93.3656L152.351 96.3563L122.145 69.8045V69.4533C122.145 66.4645 119.519 64.0014 116.328 64.0014L90.2492 64.0034C89.4995 64.0034 88.7478 63.4755 88.5614 62.9476L80.4931 43.4292C78.4284 38.5054 73.5516 35.3398 67.9229 35.3398H65.6718C57.7922 35.3398 51.2253 41.3172 51.2253 48.8785V74.5511C56.6653 73.4953 62.108 72.7927 67.7367 72.7927C70.9259 72.7927 74.1149 72.9693 77.1179 73.3206C76.5546 72.6181 76.1798 71.9136 75.805 71.0344L71.864 50.9905L79.369 69.8041C80.3071 72.0903 82.1833 73.8486 84.6228 74.5512C84.9977 74.7278 85.561 74.7278 85.9358 74.9024H87.0624H116.144H116.519L147.477 101.98L147.475 103.389C147.475 116.048 138.843 126.775 126.836 130.82C127.399 133.457 127.774 136.095 128.149 138.732C128.337 140.139 128.337 141.546 128.337 142.951C128.337 146.819 127.963 150.864 127.024 154.557C126.65 156.492 126.086 158.425 125.337 160.183H164.174C163.986 158.953 163.986 157.897 163.986 156.667C163.986 132.752 184.624 113.411 209.953 113.411C235.283 113.411 255.921 132.752 255.921 156.667C255.921 157.897 255.921 158.953 255.733 160.183H265.489L281.248 121.851C282.938 118.158 281.625 113.588 278.059 111.125L278.06 111.126Z" fill="white"/>
<path d="M8.07012 142.952H0.565186C0.565186 126.071 7.50671 110.072 20.2656 98.2915C33.0246 86.3344 49.9107 79.8291 67.9209 79.8291C85.9338 79.8291 102.82 86.3344 115.576 98.2915L110.322 103.215C99.0649 92.6653 84.055 86.688 68.107 86.688C52.159 86.688 37.1492 92.491 25.8918 103.215C14.2618 113.763 8.06969 128.007 8.06969 142.952L8.07012 142.952Z" fill="white"/>
<path d="M67.1718 192.889H67.7351C68.6732 192.889 69.6113 192.889 70.5494 192.712C79.3672 185.151 90.8133 180.581 103.009 180.227C109.576 174.775 114.641 167.919 117.644 160.183C118.582 157.897 119.332 155.611 119.895 153.15C120.645 149.81 121.022 146.468 121.022 142.951C121.022 141.721 121.022 140.49 120.833 139.258C120.645 136.971 120.27 134.511 119.707 132.224C114.453 109.717 93.2506 92.8389 67.7354 92.8389C38.4651 92.8389 14.6375 115.169 14.6375 142.774C14.6375 157.543 21.579 170.908 32.4617 180.05H32.6501C45.5951 180.229 57.7906 184.801 67.1718 192.889ZM67.9214 122.204C80.1169 122.204 90.0615 131.524 90.0615 142.953C90.0615 154.382 80.1169 163.702 67.9214 163.702C55.7259 163.702 45.7813 154.382 45.7813 142.953C45.7834 131.524 55.7259 122.204 67.9214 122.204Z" fill="white"/>
<path d="M215.769 192.537C222.148 187.262 229.652 183.394 237.91 181.636C244.476 175.131 248.418 166.339 248.418 156.843C248.418 136.799 231.157 120.62 209.955 120.62C188.753 120.622 171.678 136.798 171.678 156.668C171.678 165.636 175.242 173.9 181.06 180.405C192.506 181.108 203.386 185.503 211.829 192.89C213.144 192.714 214.456 192.714 215.769 192.537ZM192.13 156.668C192.13 147.349 200.198 139.787 210.143 139.787C220.087 139.787 228.156 147.349 228.156 156.668C228.156 165.988 220.087 173.549 210.143 173.549C200.196 173.724 192.13 165.988 192.13 156.668Z" fill="white"/>
<path d="M249.917 187.262C236.972 187.262 224.962 192.537 216.519 201.856L213.705 205.022L210.704 201.856C202.45 192.537 190.254 187.262 177.307 187.262C164.362 187.262 152.352 192.537 143.909 201.856L141.095 205.022L138.281 201.856C130.026 192.537 117.831 187.262 104.883 187.262C91.9381 187.262 79.9286 192.537 71.4856 201.856L68.6712 205.022L65.8569 201.856C57.6025 192.537 45.407 187.262 32.4594 187.262C20.0752 187.262 8.25704 192.185 0 200.977V220.672H281.998L282 217.681V201.152C273.932 192.185 262.3 187.262 249.915 187.262L249.917 187.262Z" fill="white"/>
</svg>
